<svg width="299" height="135" viewBox="0 0 299 135" fill="none" xmlns="http://www.w3.org/2000/svg">
<g id="cloud3">
<g id="Group">
<path id="Vector" d="M49.6952 39.9148C43.2452 36.9748 34.9253 38.8848 30.4053 44.3448C25.8853 49.8148 25.5652 58.3348 29.6652 64.1248C22.8852 65.2048 16.0452 67.5248 11.0752 72.2648C6.10522 77.0048 3.41522 84.5648 5.82522 90.9948C6.95522 94.0248 9.1052 96.5948 11.5552 98.7048C18.6852 104.875 31.1352 106.705 36.6852 99.0748C43.7352 108.225 59.2053 108.995 67.1353 100.605C70.0353 110.925 76.0953 120.825 85.5053 125.955C94.9153 131.085 107.925 130.255 115.085 122.275C115.875 121.395 116.635 120.415 117.745 120.025C119.145 119.535 120.675 120.135 122.075 120.625C136.975 125.855 155.295 117.065 160.535 102.165C164.745 103.185 169.055 104.225 173.365 103.775C177.675 103.325 182.065 101.115 183.925 97.1948C193.385 107.295 207.005 113.375 220.835 113.685C234.665 113.995 248.545 108.515 258.435 98.8448C259.625 97.6848 260.795 96.4348 262.295 95.7248C264.655 94.6048 267.405 94.9748 270.015 94.8348C278.725 94.3548 286.585 87.1248 287.785 78.4848C285.855 81.9648 283.925 85.4448 281.985 88.9248C288.215 88.5248 292.735 80.8748 290.075 75.2248C289.675 77.1548 289.975 79.2348 290.925 80.9648C293.225 79.9448 294.185 76.6948 292.815 74.5848C264.345 73.4848 235.875 72.3848 207.395 71.2848C204.695 71.1848 201.955 71.0648 199.375 70.2448C197.455 69.6348 195.685 68.6448 193.895 67.7248C176.745 58.8848 157.175 55.7948 137.895 55.1348C118.615 54.4748 99.3352 56.1248 80.0452 56.1648C76.0552 56.1648 71.9152 56.0848 68.3052 54.3748C59.3252 50.1348 55.2352 36.8548 45.3152 36.6248" fill="#E4F2F2"/>
<path id="Vector_2" d="M51.0249 35.0948C31.7349 27.3948 14.3548 49.4448 25.3448 66.6548L28.3348 59.3148C19.8248 60.7948 11.1848 64.0647 5.56477 70.9347C0.26477 77.4047 -1.81521 86.5148 1.83479 94.2648C8.07479 107.495 29.6948 115.575 40.2148 102.625H33.1448C42.4748 113.825 60.4147 114.225 70.6647 104.155L62.3048 101.945C65.6748 113.315 72.2348 124.485 82.9748 130.275C92.8148 135.575 105.825 135.735 115.025 128.965C116.675 127.755 118.545 125.195 120.025 125.215C122.375 125.235 125.335 126.695 127.785 126.945C132.975 127.485 138.305 126.795 143.225 125.035C153.525 121.355 161.465 113.715 165.345 103.505L159.195 106.995C169.625 109.505 182.095 110.475 188.235 99.7348L180.385 100.745C196.545 117.455 221.495 123.315 243.175 114.545C248.205 112.515 252.845 109.885 257.135 106.565C259.425 104.785 261.585 101.975 264.125 100.645C266.665 99.3148 269.915 99.9948 272.715 99.5448C282.665 97.9448 290.835 89.6848 292.615 79.8348C293.575 74.5548 286.395 70.7148 283.475 75.9848C281.545 79.4648 279.615 82.9448 277.675 86.4248C275.365 90.5848 279.155 94.3648 283.325 93.7648C292.295 92.4948 298.095 82.3248 294.905 73.9148C292.845 68.4948 285.745 69.5948 285.085 75.2448C284.735 78.2948 285.415 80.7348 286.625 83.5148C287.665 85.9048 291.415 86.6548 293.465 85.3048C298.255 82.1548 299.405 77.2348 297.145 72.0848C296.445 70.4848 294.445 69.6748 292.825 69.6048C273.955 68.8748 255.085 68.1448 236.215 67.4248C226.615 67.0548 217.005 66.7448 207.415 66.3148C199.385 65.9548 193.025 61.4848 185.665 58.6648C152.245 45.8848 115.865 51.0748 81.0248 51.1948C76.5648 51.2148 72.0848 51.3148 68.3248 48.5748C65.6948 46.6548 63.6449 43.8748 61.5249 41.4348C57.0449 36.2848 52.3848 32.1948 45.3248 31.6548C38.9048 31.1648 38.9348 41.1648 45.3248 41.6548C50.7148 42.0648 54.4248 48.6948 57.7348 52.2748C62.2448 57.1548 67.3447 60.2048 74.0447 60.9248C82.9847 61.8848 92.3048 61.0148 101.275 60.6948C110.275 60.3748 119.265 60.0148 128.275 60.0148C145.645 60.0148 163.195 61.4148 179.725 67.1148C186.915 69.5948 193.695 74.5748 201.225 75.7848C210.035 77.2048 219.375 76.7748 228.275 77.1148C249.795 77.9448 271.315 78.7748 292.835 79.6048L288.515 77.1248L288.425 76.6648L295.265 78.4548C294.875 77.3948 294.815 76.3248 295.095 75.2348L285.275 76.5648C286.715 80.3448 284.595 83.5548 280.685 84.1148C282.565 86.5648 284.445 89.0148 286.335 91.4548C288.265 87.9748 290.195 84.4948 292.135 81.0148L282.995 77.1648C282.225 81.4348 280.175 85.0648 276.505 87.5148C272.835 89.9648 268.905 89.5747 264.635 90.0747C259.545 90.6647 256.815 93.7148 253.165 96.9548C249.515 100.195 245.185 102.875 240.675 104.825C222.315 112.745 201.245 107.905 187.485 93.6748C185.255 91.3748 181.215 91.9247 179.635 94.6847C176.045 100.965 167.575 98.7148 161.895 97.3548C159.075 96.6748 156.735 98.2448 155.745 100.845C152.755 108.715 145.525 114.325 137.485 116.365C133.475 117.385 129.325 117.415 125.325 116.385C120.935 115.245 117.155 113.805 113.245 117.055C109.875 119.855 107.785 122.505 103.275 123.615C98.7648 124.725 94.1748 124.255 90.0248 122.565C80.4048 118.645 74.8148 108.785 72.0048 99.2948C70.9348 95.6848 66.3648 94.4148 63.6448 97.0848C56.9948 103.615 46.0948 102.565 40.2648 95.5548C38.6548 93.6248 34.7848 93.5948 33.1948 95.5548C26.9648 103.215 13.4348 97.3048 10.5548 89.1148C6.23476 76.8348 21.9548 70.5348 31.0448 68.9548C34.1848 68.4048 35.6447 64.1348 34.0347 61.6148C27.4747 51.3348 37.4248 40.3548 48.4248 44.7448C54.4048 47.1348 56.9948 37.4648 51.0848 35.1048L51.0249 35.0948Z" fill="#E4F2F2"/>
</g>
<g id="Group_2">
<path id="Vector_3" d="M48.1254 68.6047C45.7054 70.8247 42.3354 71.6647 39.6254 73.5347C36.9154 75.4047 34.9453 79.3047 36.9453 81.9047C39.4353 85.1247 44.5353 82.8847 47.7953 80.4547C48.6953 84.5747 52.6453 87.8247 56.8653 87.9047C61.0853 87.9847 65.1553 84.8847 66.2053 80.7947C80.9053 93.4847 104.935 93.5247 119.675 80.8847C125.935 84.6847 133.915 85.4947 140.815 83.0447C147.715 80.5947 153.375 74.9147 155.825 68.0147C160.885 75.7747 174.115 75.9347 179.375 68.3047C184.825 78.0547 194.965 84.5447 205.695 87.6847C216.415 90.8247 227.775 90.9647 238.945 90.5447C246.765 90.2547 255.375 89.3447 260.745 83.6447C262.145 82.1547 263.385 80.3147 265.345 79.7047C267.025 79.1847 268.815 79.7147 270.525 80.1347C278.155 82.0247 287.205 81.2347 292.415 75.3547C293.155 74.5247 293.825 73.5247 293.865 72.4147C293.935 70.3247 291.845 68.8647 289.925 68.0347C282.405 64.7847 273.505 64.8747 266.055 68.2947C269.405 53.9647 259.875 37.8447 245.695 33.8747C231.525 29.9047 215.005 38.7247 210.425 52.7147C204.205 46.8447 196.895 41.7247 188.505 40.0147C180.115 38.3047 170.535 40.6247 165.285 47.3747C165.965 41.6047 161.965 35.6347 156.365 34.0847C150.765 32.5347 144.255 35.5847 141.865 40.8847C139.865 35.6947 131.865 34.2447 128.175 38.4047C130.985 28.6647 124.465 18.4947 116.385 12.3747C109.235 6.95473 99.9854 3.40473 91.2754 5.53473C81.7354 7.85473 74.5054 17.4247 74.8754 27.2347C72.4154 20.2447 63.2254 16.5947 56.6354 19.9947C50.0454 23.3947 47.6953 32.9947 51.9653 39.0547C46.1453 37.5247 40.2453 43.1347 39.7453 49.1347C39.2453 55.1347 42.7554 60.8147 47.1254 64.9547" fill="white"/>
<path id="Vector_4" d="M44.5851 65.0647C41.2951 67.6947 37.1351 68.4447 34.2451 71.7147C31.8051 74.4747 30.395 78.5647 31.555 82.1947C34.365 90.9747 44.5551 88.7847 50.3251 84.7547L42.9851 81.7647C47.3451 96.0447 66.215 96.0147 71.035 82.1047L62.675 84.3147C80.115 98.7847 105.735 98.8147 123.215 84.4047L117.155 85.1847C133.875 94.5847 153.765 86.9547 160.645 69.3147L151.505 70.5047C159.445 81.4747 175.525 81.4847 183.685 70.7947H175.055C183.565 85.2247 199.165 92.5047 215.265 94.6947C224.045 95.8947 233.055 95.9547 241.895 95.3547C249.265 94.8547 256.865 93.5247 262.665 88.6047C263.785 87.6547 264.735 86.0847 265.925 85.2847C267.635 84.1447 268.375 84.8247 270.535 85.2247C274.245 85.9147 277.915 86.2047 281.675 85.7347C287.845 84.9647 295.095 81.9247 297.935 75.9747C301.445 68.6347 294.205 63.8747 288.155 62.0547C279.855 59.5447 271.375 60.6047 263.505 63.9347L270.845 69.5847C274.365 52.4947 264.195 33.8247 246.995 29.0147C229.795 24.2047 211.435 34.9347 205.565 51.3447L213.925 49.1347C206.365 42.1347 197.515 36.0447 187.065 34.7247C177.725 33.5447 167.885 36.4847 161.715 43.7947L170.255 47.3347C171.315 28.7147 146.175 21.8647 137.515 38.3147H146.145C142.185 30.1147 130.975 28.7347 124.605 34.8247L132.965 39.6847C137.315 21.6147 120.725 4.90471 104.185 0.844715C86.825 -3.42528 69.8251 8.97472 69.8451 27.1747L79.665 25.8447C75.705 16.3247 64.4651 10.4647 54.6451 15.3647C44.8251 20.2647 42.0951 32.6847 47.6151 41.5147L53.2651 34.1747C45.1351 32.7847 37.525 37.6447 35.295 45.7047C32.925 54.2547 37.655 62.5747 43.555 68.4347C48.125 72.9747 55.1951 65.9047 50.6251 61.3647C47.8651 58.6247 45.2251 55.3847 44.7651 51.3747C44.3951 48.1547 46.5551 43.1247 50.6051 43.8247C54.6551 44.5247 58.7551 40.4847 56.2551 36.4847C53.9051 32.7147 54.4351 26.9747 58.6051 24.5747C62.4551 22.3647 68.3151 24.3947 70.0251 28.5147C72.0551 33.3847 79.8551 33.2847 79.8451 27.1847C79.8351 14.6647 91.565 7.44471 103.055 10.9147C113.435 14.0447 126.225 24.9747 123.325 37.0347C122.155 41.8947 128.025 45.3947 131.685 41.8947C133.705 39.9647 136.445 41.1347 137.525 43.3647C139.145 46.7147 144.495 46.5347 146.155 43.3647C150.265 35.5547 160.755 38.6047 160.265 47.3347C160.025 51.4947 166.025 54.1647 168.805 50.8747C179.745 37.9047 196.955 47.0347 206.875 56.2147C209.765 58.8947 213.955 57.5847 215.235 54.0047C219.275 42.6947 232.655 35.3347 244.355 38.6547C256.055 41.9747 263.655 55.1147 261.215 66.9247C260.265 71.5147 264.555 74.2647 268.555 72.5747C271.515 71.3147 274.725 70.6747 277.945 70.6447C281.165 70.6147 283.925 71.8447 287.055 72.2247L288.535 72.9047C289.155 71.4547 288.945 71.4147 287.905 72.7847C286.885 73.2647 286.055 74.1647 284.985 74.6447C282.625 75.7147 280.045 76.0447 277.465 76.0247C272.335 75.9747 267.175 73.1247 262.255 75.6147C260.145 76.6847 258.845 78.4647 257.195 80.0847C255.165 82.0847 252.865 83.2947 250.125 84.0747C244.715 85.6147 238.915 85.5947 233.335 85.6747C226.345 85.7747 219.295 85.5647 212.425 84.1747C200.845 81.8347 189.835 76.1947 183.685 65.7647C181.605 62.2347 177.255 62.8747 175.055 65.7647C171.655 70.2247 163.385 69.9447 160.145 65.4747C157.515 61.8347 152.625 62.5347 151.005 66.6647C146.465 78.3147 132.875 82.5547 122.205 76.5547C120.105 75.3747 117.905 75.8847 116.145 77.3347C103.155 88.0447 82.6951 87.9947 69.7451 77.2447C66.7751 74.7847 62.6851 75.7047 61.3851 79.4547C59.7551 84.1547 54.0051 83.6347 52.6251 79.1147C51.7451 76.2447 48.025 74.2147 45.285 76.1247C43.835 77.1347 42.4651 77.9747 40.7651 78.4647L41.3951 78.8247C41.8751 78.0447 42.5251 77.4747 43.3651 77.0947C46.1151 75.2947 49.065 74.2247 51.685 72.1347C56.705 68.1147 49.5951 61.0747 44.6151 65.0647H44.5851Z" fill="white"/>
</g>
</g>
</svg>
