<svg width="176" height="102" viewBox="0 0 176 102" fill="none" xmlns="http://www.w3.org/2000/svg">
<g id="cloud2">
<g id="Group">
<path id="Vector" d="M136.159 34.8566C142.159 30.1766 153.589 31.1166 158.229 36.6766C162.869 42.2366 159.379 50.8266 151.509 53.2666C156.089 55.5866 160.669 58.0166 164.249 61.2466C167.819 64.4766 170.329 68.6466 170.019 72.9166C169.419 81.1966 158.309 87.0466 147.739 87.3666C144.929 87.4466 142.029 87.2266 139.519 86.2366C137.129 85.2866 135.249 83.7066 133.509 82.1066C128.619 77.6166 124.329 72.7166 120.729 67.5166C121.939 77.2266 117.049 87.7066 106.699 93.0966C96.3392 98.4966 80.6191 97.3666 73.1891 89.5466C69.1691 85.3166 67.9091 79.8966 67.0691 74.6666C67.1791 78.9266 67.2391 83.3766 64.8791 87.2166C62.5191 91.0566 56.9291 94.0366 51.7191 92.8266C49.5891 92.3266 47.7891 91.2166 46.0891 90.0866C41.5391 87.0466 37.3291 83.6766 33.5291 80.0566C43.0691 85.0766 53.6491 90.0766 65.1191 89.5466C58.9191 93.3666 50.1091 94.3966 42.7491 92.1666C35.3891 89.9366 29.7591 84.5266 28.4391 78.4266C22.6891 82.5066 12.5891 80.8266 8.11913 75.8566C3.64913 70.8866 4.23913 63.8666 8.01913 58.5566C12.8891 51.7166 22.1791 47.4266 31.7391 45.1566C41.2991 42.8966 51.3591 42.3566 61.2291 41.1266C76.9991 39.1666 92.5191 35.4266 108.489 35.3366C117.849 35.2866 127.399 36.4766 136.439 34.5966" fill="#E4F2F2"/>
<path id="Vector_2" d="M138.679 39.1766C142.599 36.4266 148.519 35.8666 152.699 38.5166C157.489 41.5566 154.609 46.8366 150.179 48.4466C146.449 49.8066 144.859 55.4766 148.989 57.5866C154.379 60.3366 161.599 63.4666 164.279 69.3066C166.839 74.8766 161.359 78.6466 156.759 80.5066C151.649 82.5666 144.259 83.7066 139.409 80.5266C133.759 76.8166 128.909 70.4466 125.059 65.0066C122.509 61.3966 115.219 62.1066 115.739 67.5266C116.919 79.6166 108.379 89.4566 96.4791 91.1666C91.2191 91.9266 85.3691 91.3866 80.6091 88.8966C74.5891 85.7466 72.9491 79.5966 71.8891 73.3466C70.9491 67.7366 61.9491 69.1266 62.0691 74.6766C62.1891 80.2266 61.5091 88.5366 53.8091 88.0566C50.8091 87.8666 47.9791 85.3966 45.6291 83.6966C42.6091 81.5066 39.7891 79.0766 37.0691 76.5266C35.0491 79.1466 33.0291 81.7666 31.0091 84.3766C41.7191 89.9666 52.8091 94.8066 65.1191 94.5566L62.5991 85.2366C53.2491 90.5666 36.5191 89.3666 33.2691 77.0966C32.4591 74.0466 28.6591 72.4066 25.9291 74.1066C21.8791 76.6366 15.5691 76.2166 12.0891 72.7366C7.38913 68.0366 11.3491 61.3766 15.4291 57.8966C25.4191 49.3766 40.4491 48.3466 52.8891 47.0566C67.0591 45.5766 81.0291 42.6866 95.1791 41.1566C109.329 39.6266 123.739 42.0266 137.789 39.4266C144.109 38.2566 141.429 28.6166 135.129 29.7866C125.709 31.5366 116.089 30.1566 106.589 30.3766C97.8891 30.5766 89.2391 31.8066 80.6491 33.1566C71.0891 34.6566 61.5891 36.1466 51.9591 37.1566C43.4091 38.0566 34.7291 38.9166 26.4691 41.4066C13.8891 45.2066 -1.96086 54.6766 0.199144 70.0866C2.13914 83.9166 19.8491 89.6966 30.9691 82.7366L23.6291 79.7466C28.5691 98.3966 52.6791 102.387 67.6491 93.8566C71.9191 91.4266 70.0991 84.4366 65.1291 84.5366C54.5891 84.7566 45.2191 80.5066 36.0591 75.7266C31.2091 73.1966 25.6891 79.5466 29.9991 83.5766C37.2591 90.3666 47.1591 100.087 58.0091 97.6066C69.1191 95.0766 72.2791 84.8166 72.0691 74.6566L62.2491 75.9866C63.6691 84.4266 66.8891 92.2466 74.4691 96.8966C81.3091 101.087 89.9491 102.087 97.7691 100.997C114.199 98.6966 127.399 84.5566 125.739 67.5166L116.419 70.0366C121.749 77.5666 128.749 87.2266 137.599 90.8066C145.959 94.1766 156.889 92.1766 164.539 87.8066C171.329 83.9266 176.449 76.8866 174.649 68.7666C172.439 58.7866 162.369 53.2066 154.029 48.9466L152.839 58.0866C162.619 54.5266 169.709 42.9566 162.149 33.6466C155.629 25.6066 141.839 24.7766 133.629 30.5366C128.399 34.2066 133.389 42.8766 138.679 39.1666V39.1766Z" fill="#E4F2F2"/>
</g>
<g id="Group_2">
<path id="Vector_3" d="M141.209 53.6266C148.539 53.0266 154.719 59.6866 152.709 65.2466C150.689 70.8066 142.279 74.0266 135.099 72.7266C127.919 71.4266 122.419 66.4166 120.539 60.8266C114.689 67.5366 104.759 71.9366 94.4094 72.4166C84.0694 72.8966 73.5494 69.4266 66.7394 63.3066C59.8494 66.3966 51.7094 68.4266 43.9794 67.0366C36.2494 65.6466 29.4394 59.9866 30.2194 53.7866C27.4294 59.0566 16.5794 58.8566 12.2294 54.2766C7.87944 49.6966 8.94942 43.0966 12.3394 38.0466C15.7394 32.9866 21.3994 28.7366 28.3394 26.9666C35.2694 25.1966 43.4394 26.1466 48.8894 29.9566C51.9394 24.5966 61.2294 22.1066 67.8194 24.8766C65.2794 21.2366 62.8994 16.9966 64.5594 13.0466C66.4894 8.47663 73.0494 6.23663 79.0994 5.43663C85.4294 4.60663 92.2694 4.84663 97.7694 7.43663C103.269 10.0266 106.919 15.4166 105.049 20.2366C112.339 16.9066 121.959 13.6466 128.559 17.7766C134.249 21.3366 133.759 28.2966 131.189 33.6366C138.069 30.1166 148.699 32.7766 151.719 38.7766C154.739 44.7766 149.279 52.4066 141.189 53.5266" fill="white"/>
<path id="Vector_4" d="M141.209 58.6266C143.639 58.5866 148.099 59.7466 148.089 62.9866C148.089 65.5766 143.869 67.0966 141.959 67.5766C135.449 69.1966 127.849 65.9566 125.349 59.5066C124.079 56.2166 119.759 54.2966 116.989 57.2966C105.339 69.9466 83.2993 70.9066 70.2693 59.7666C68.3793 58.1566 66.4193 58.0366 64.2093 58.9866C58.6493 61.3866 52.3993 63.0366 46.2993 62.3166C41.7993 61.7866 34.9493 59.2566 35.2093 53.7766C35.4493 48.5866 28.4393 47.2966 25.8893 51.2566C24.3693 53.6266 19.2693 52.9066 17.2293 51.7966C12.2393 49.0766 14.7993 42.7266 17.5893 39.3066C24.3793 31.0066 37.2393 28.4466 46.3593 34.2666C48.7193 35.7766 51.7593 34.6566 53.1993 32.4766C55.9693 28.2666 62.2593 28.1466 66.4793 29.6966C70.5193 31.1766 74.4893 25.8666 72.1293 22.3566C69.9093 19.0566 67.2993 15.3866 71.5293 12.8066C74.6693 10.8866 78.9993 10.3366 82.5793 10.1066C87.3493 9.8066 102.609 10.7266 100.219 18.9166C98.8893 23.4766 103.809 26.2366 107.559 24.5666C112.149 22.5166 118.079 19.9566 123.219 21.0166C128.539 22.1166 128.739 26.8766 126.859 31.1266C124.789 35.8066 128.979 40.0966 133.699 37.9666C137.339 36.3166 143.799 36.7366 146.529 40.0666C150.119 44.4466 143.429 48.0366 139.849 48.7166C133.529 49.9066 136.209 59.5466 142.509 58.3566C152.379 56.4966 161.609 45.8566 155.759 35.8066C150.439 26.6766 137.479 25.3466 128.659 29.3366L135.499 36.1766C138.979 28.3166 139.299 18.5466 131.079 13.4766C122.209 8.0166 111.129 12.0866 102.519 15.9366C104.969 17.8166 107.419 19.6966 109.859 21.5866C118.849 -9.1434 40.3393 -6.9434 63.4893 27.4166C65.3693 24.9666 67.2493 22.5166 69.1393 20.0766C60.4693 16.9066 49.7293 19.5766 44.5593 27.4566L51.3993 25.6666C35.7193 15.6466 9.9893 23.2866 4.9993 42.1866C2.8393 50.3866 6.7393 58.8166 14.8793 61.6266C21.7593 64.0066 30.3693 62.8066 34.5193 56.3466L25.1993 53.8266C24.7893 62.6966 32.4793 69.0266 40.3493 71.3466C50.0493 74.2066 60.2593 71.5466 69.2393 67.6666L63.1793 66.8866C80.1993 81.4266 108.519 81.2766 124.049 64.4166L115.689 62.2066C120.939 75.8066 137.759 82.5866 150.639 74.7566C164.589 66.2766 155.929 48.4066 141.189 48.6666C134.759 48.7766 134.739 58.7766 141.189 58.6666L141.209 58.6266Z" fill="white"/>
</g>
</g>
</svg>
