<svg width="299" height="135" viewBox="0 0 299 135" fill="none" xmlns="http://www.w3.org/2000/svg">
<g id="cloud1">
<g id="Group">
<path id="Vector" d="M249.141 39.8747C255.591 36.9347 263.911 38.8447 268.431 44.3047C272.951 49.7747 273.271 58.2947 269.171 64.0847C275.951 65.1647 282.791 67.4847 287.761 72.2247C292.731 76.9647 295.421 84.5247 293.011 90.9547C291.881 93.9847 289.731 96.5547 287.281 98.6647C280.151 104.835 267.701 106.665 262.151 99.0347C255.101 108.185 239.631 108.955 231.701 100.565C228.801 110.885 222.741 120.785 213.331 125.915C203.921 131.045 190.911 130.215 183.751 122.235C182.961 121.355 182.201 120.375 181.091 119.985C179.691 119.495 178.161 120.095 176.761 120.585C161.861 125.815 143.541 117.025 138.301 102.125C134.091 103.145 129.781 104.185 125.471 103.735C121.161 103.295 116.771 101.075 114.911 97.1547C105.451 107.255 91.8307 113.335 78.0007 113.645C64.1707 113.955 50.2907 108.475 40.4007 98.8047C39.2107 97.6447 38.0407 96.3947 36.5407 95.6847C34.1807 94.5647 31.4307 94.9347 28.8207 94.7947C20.1107 94.3147 12.2507 87.0847 11.0507 78.4447C12.9807 81.9247 14.9107 85.4047 16.8507 88.8847C10.6207 88.4847 6.10068 80.8347 8.76068 75.1847C9.16068 77.1147 8.86068 79.1947 7.91068 80.9247C5.61068 79.9047 4.65068 76.6547 6.02068 74.5447C34.4907 73.4447 62.9607 72.3447 91.4407 71.2447C94.1407 71.1447 96.8807 71.0247 99.4607 70.2047C101.381 69.5947 103.151 68.6047 104.941 67.6847C122.091 58.8447 141.661 55.7547 160.941 55.0947C180.221 54.4347 199.501 56.0847 218.791 56.1247C222.781 56.1247 226.921 56.0447 230.531 54.3347C239.511 50.0947 243.601 36.8147 253.521 36.5847" fill="#E4F2F2"/>
<path id="Vector_2" d="M250.47 44.7047C261.46 40.3247 271.43 51.2847 264.86 61.5747C263.25 64.1047 264.7 68.3747 267.85 68.9147C276.94 70.4947 292.67 76.7847 288.34 89.0747C285.46 97.2647 271.93 103.175 265.7 95.5147C264.1 93.5447 260.23 93.5947 258.63 95.5147C252.8 102.515 241.9 103.575 235.25 97.0447C232.53 94.3747 227.96 95.6347 226.89 99.2547C224.15 108.525 218.78 118.105 209.57 122.245C205.48 124.085 200.68 124.655 196.29 123.725C191.46 122.705 189.22 119.985 185.64 117.015C182.06 114.045 178.34 114.975 174.19 116.175C170.04 117.375 166.06 117.395 162.03 116.475C153.73 114.585 146.2 108.885 143.13 100.805C142.14 98.2148 139.82 96.6248 136.98 97.3148C131.28 98.6848 122.83 100.945 119.24 94.6447C117.66 91.8847 113.61 91.3247 111.39 93.6347C97.6303 107.875 76.5503 112.705 58.2003 104.785C53.9203 102.935 49.8503 100.465 46.3003 97.4447C42.7503 94.4247 39.9503 90.9348 34.8903 90.1248C30.6803 89.4448 26.7803 90.1648 22.9503 87.8348C19.1203 85.5048 16.6903 81.6547 15.8803 77.1347L6.74032 80.9847C8.67032 84.4647 10.6003 87.9447 12.5403 91.4247L18.1903 84.0848C14.2603 83.5248 12.1703 80.2847 13.6003 76.5347L3.78032 75.2047C4.06032 76.2947 4.00031 77.3647 3.61031 78.4247L10.4503 76.6347L10.3603 77.0948L6.04031 79.5747C24.9103 78.8447 43.7803 78.1147 62.6503 77.3947C72.2503 77.0247 81.8603 76.7147 91.4503 76.2847C95.1103 76.1147 98.7603 75.8747 102.21 74.5447C105.66 73.2147 108.83 71.2648 112.21 69.7748C145.3 55.1348 182.86 61.0447 217.84 61.1647C226.16 61.1947 233.24 59.9247 239.41 54.0347C243.38 50.2347 247.47 42.0947 253.54 41.6347C259.92 41.1447 259.97 31.1447 253.54 31.6347C247.47 32.0947 243 35.1448 238.97 39.5548C234.94 43.9648 231.42 49.7348 224.99 50.8348C216.24 52.3348 206.42 50.9847 197.59 50.6747C188.76 50.3647 179.6 49.9948 170.59 49.9948C153.54 49.9948 136.17 51.3148 119.8 56.3748C116.05 57.5348 112.37 58.9047 108.76 60.4547C105.15 62.0047 101.81 64.2448 98.1303 65.4348C94.1703 66.7148 89.5903 66.3648 85.4803 66.5248C80.5103 66.7148 75.5503 66.9048 70.5803 67.0948C49.0603 67.9248 27.5403 68.7548 6.02032 69.5848C4.40032 69.6448 2.41032 70.4548 1.70032 72.0648C-0.559683 77.2148 0.580317 82.1247 5.38032 85.2847C7.45032 86.6447 11.1803 85.8848 12.2203 83.4948C13.4203 80.7248 14.1103 78.2847 13.7603 75.2247C13.1103 69.6147 6.01031 68.4447 3.94031 73.8947C0.740314 82.3047 6.55032 92.4648 15.5203 93.7448C19.6903 94.3348 23.4603 90.5348 21.1703 86.4048C19.2403 82.9248 17.3103 79.4448 15.3703 75.9648C12.4703 70.7448 5.27032 74.4848 6.23032 79.8148C8.02032 89.6848 16.1803 97.8848 26.1303 99.5248C28.5003 99.9148 31.5303 99.2747 33.7603 100.045C36.4603 100.975 38.8603 104.295 41.0803 106.055C45.5403 109.595 50.3903 112.395 55.6703 114.525C77.3503 123.295 102.31 117.435 118.46 100.725L110.61 99.7148C116.75 110.455 129.22 109.485 139.65 106.975L133.5 103.485C137.31 113.495 144.98 121.005 155.01 124.795C159.87 126.635 165.24 127.455 170.42 127.005C173.09 126.765 175.51 125.875 178.11 125.435C181.04 124.945 178.41 124.765 180.24 125.795C181.48 126.495 182.63 128.065 183.82 128.945C192.85 135.595 205.48 135.535 215.25 130.575C226.34 124.945 233.12 113.485 236.54 101.925L228.18 104.135C238.43 114.205 256.38 113.805 265.7 102.605H258.63C269.16 115.555 290.77 107.465 297.01 94.2448C300.58 86.6848 298.68 77.8547 293.67 71.4147C288.07 64.2147 279.23 60.8047 270.51 59.2947L273.5 66.6347C284.48 49.4247 267.11 27.3747 247.82 35.0747C241.92 37.4347 244.49 47.1048 250.48 44.7148L250.47 44.7047Z" fill="#E4F2F2"/>
</g>
<g id="Group_2">
<path id="Vector_3" d="M250.71 68.5648C253.13 70.7848 256.5 71.6248 259.21 73.4948C261.92 75.3648 263.89 79.2648 261.89 81.8648C259.4 85.0848 254.3 82.8448 251.04 80.4148C250.14 84.5348 246.19 87.7848 241.97 87.8648C237.75 87.9448 233.68 84.8448 232.63 80.7548C217.93 93.4448 193.9 93.4848 179.16 80.8448C172.9 84.6448 164.92 85.4548 158.02 83.0048C151.12 80.5548 145.46 74.8748 143.01 67.9748C137.95 75.7348 124.72 75.8948 119.46 68.2648C114.01 78.0148 103.87 84.5048 93.1405 87.6448C82.4205 90.7848 71.0605 90.9248 59.8905 90.5048C52.0705 90.2148 43.4605 89.3048 38.0905 83.6048C36.6905 82.1148 35.4505 80.2748 33.4905 79.6648C31.8105 79.1448 30.0205 79.6748 28.3105 80.0948C20.6805 81.9848 11.6305 81.1948 6.42047 75.3148C5.68047 74.4848 5.01046 73.4848 4.97046 72.3748C4.90046 70.2848 6.99046 68.8248 8.91046 67.9948C16.4305 64.7448 25.3305 64.8348 32.7805 68.2548C29.4305 53.9248 38.9605 37.8048 53.1405 33.8348C67.3105 29.8648 83.8305 38.6848 88.4105 52.6748C94.6305 46.8048 101.94 41.6848 110.33 39.9748C118.72 38.2648 128.3 40.5848 133.55 47.3348C132.87 41.5648 136.87 35.5948 142.47 34.0448C148.07 32.4948 154.58 35.5448 156.97 40.8448C158.97 35.6548 166.97 34.2048 170.66 38.3648C167.85 28.6248 174.37 18.4548 182.45 12.3348C189.6 6.91481 198.85 3.36482 207.56 5.49482C217.1 7.81482 224.33 17.3848 223.96 27.1948C226.42 20.2048 235.61 16.5548 242.2 19.9548C248.79 23.3548 251.14 32.9548 246.87 39.0148C252.69 37.4848 258.59 43.0948 259.09 49.0948C259.59 55.0948 256.08 60.7748 251.71 64.9148" fill="white"/>
<path id="Vector_4" d="M247.17 72.1047C249.8 74.2147 252.74 75.2447 255.49 77.0647C256.15 77.3247 256.67 77.7347 257.05 78.3047C257.29 78.9247 257.63 78.9647 258.08 78.4347C256.37 77.9347 255.01 77.1047 253.56 76.0947C250.82 74.1847 247.09 76.2147 246.22 79.0847C244.84 83.6047 239.08 84.1247 237.46 79.4247C236.16 75.6747 232.07 74.7547 229.1 77.2147C216.15 87.9647 195.7 88.0147 182.7 77.3047C180.94 75.8547 178.72 75.3547 176.64 76.5247C165.97 82.5247 152.38 78.2847 147.84 66.6347C146.22 62.4747 141.32 61.8247 138.7 65.4447C135.46 69.9147 127.19 70.1947 123.79 65.7347C121.59 62.8447 117.24 62.2047 115.16 65.7347C109 76.1847 98.0002 81.7847 86.4202 84.1447C79.8602 85.4847 73.1202 85.7147 66.4402 85.6547C60.5702 85.6047 54.4102 85.6747 48.7202 84.0547C43.4402 82.5447 41.5302 78.4347 37.1402 75.8447C32.1502 72.9147 26.6502 75.9347 21.3802 76.0047C19.0702 76.0347 16.6702 75.7847 14.5002 74.9247C13.1602 74.3947 12.1802 73.3447 10.9402 72.7647C10.0302 71.5347 9.77019 71.3847 10.1502 72.3347C10.2402 73.3047 10.7902 73.2647 11.8002 72.2147C18.4202 71.0147 23.7302 69.7947 30.3002 72.5747C34.3202 74.2747 38.5902 71.4947 37.6402 66.9247C35.2202 55.1647 42.7702 41.9147 54.5002 38.6547C66.2302 35.3947 79.5702 42.6447 83.6202 54.0047C84.9002 57.5747 89.0902 58.8847 91.9802 56.2147C101.91 47.0347 119.1 37.9047 130.05 50.8747C132.82 54.1547 138.82 51.5247 138.59 47.3347C138.09 38.5947 148.58 35.5447 152.7 43.3647C154.37 46.5347 159.72 46.7147 161.33 43.3647C162.41 41.1247 165.15 39.9647 167.17 41.8947C170.82 45.3847 176.7 41.8947 175.53 37.0347C172.63 24.9647 185.41 14.0447 195.8 10.9147C207.29 7.45472 219.02 14.6647 219.01 27.1847C219.01 33.2347 226.79 33.4247 228.83 28.5147C230.52 24.4447 236.44 22.3047 240.25 24.5747C244.38 27.0247 244.98 32.6647 242.6 36.4847C240.09 40.5047 244.22 44.5147 248.25 43.8247C252.28 43.1347 254.46 48.1547 254.09 51.3747C253.63 55.3847 250.99 58.6247 248.23 61.3647C243.66 65.9047 250.73 72.9847 255.3 68.4347C261.19 62.5747 265.93 54.2547 263.56 45.7047C261.33 37.6447 253.72 32.7847 245.59 34.1747L251.24 41.5147C256.76 32.6847 253.7 20.0847 244.21 15.3647C234.72 10.6447 223.14 16.3247 219.19 25.8447L229.01 27.1747C229.03 8.97472 212.03 -3.42528 194.67 0.844715C177.31 5.11471 161.54 21.6247 165.89 39.6847L174.25 34.8247C167.88 28.7447 156.67 30.1147 152.71 38.3147H161.34C152.69 21.8647 127.54 28.7147 128.6 47.3347L137.14 43.7947C130.97 36.4747 121.12 33.5447 111.79 34.7247C101.34 36.0447 92.4902 42.1447 84.9302 49.1347L93.2902 51.3447C87.4302 34.9247 69.0802 24.1847 51.8602 29.0147C34.6402 33.8447 24.4902 52.4947 28.0102 69.5847L35.3502 63.9347C27.4802 60.6047 19.0002 59.5447 10.7002 62.0547C4.6502 63.8847 -2.5898 68.6347 0.920197 75.9747C3.7602 81.9247 11.0302 84.9647 17.1802 85.7347C20.9402 86.2047 24.6002 85.9147 28.3202 85.2247C30.4802 84.8247 31.2202 84.1447 32.9302 85.2847C34.1202 86.0847 35.0702 87.6547 36.1902 88.6047C41.9902 93.5147 49.5902 94.8547 56.9602 95.3547C65.8002 95.9447 74.8102 95.8947 83.5902 94.6947C99.6902 92.4947 115.29 85.2247 123.8 70.7947H115.17C123.33 81.4847 139.41 81.4647 147.35 70.5047L138.21 69.3147C145.09 86.9547 164.98 94.5847 181.7 85.1847L175.64 84.4047C193.13 98.8147 218.74 98.7847 236.18 84.3147L227.82 82.1047C232.63 95.9947 251.51 96.0647 255.87 81.7647L248.53 84.7547C254.3 88.7747 264.5 90.9647 267.3 82.1947C268.4 78.7447 267.17 74.9747 265 72.2247C262.12 68.5747 257.74 67.8447 254.27 65.0647C249.3 61.0747 242.18 68.1047 247.2 72.1347L247.17 72.1047Z" fill="white"/>
</g>
</g>
</svg>
