<?xml version="1.0" encoding="UTF-8"?>
<svg id="Layer_1" xmlns="http://www.w3.org/2000/svg" version="1.1" viewBox="0 0 1280 1024">
  <!-- Generator: Adobe Illustrator 29.4.0, SVG Export Plug-In . SVG Version: 2.1.0 Build 152)  -->
  <defs>
    <style>
      .st0 {
        fill: #ffb955;
      }

      .st0, .st1, .st2, .st3, .st4, .st5, .st6, .st7, .st8, .st9, .st10, .st11, .st12, .st13, .st14, .st15, .st16, .st17, .st18, .st19, .st20, .st21, .st22, .st23, .st24, .st25, .st26, .st27, .st28, .st29, .st30, .st31 {
        stroke: #000;
        stroke-miterlimit: 10;
      }

      .st0, .st1, .st2, .st3, .st5, .st6, .st7, .st9, .st11, .st12, .st13, .st15, .st16, .st18, .st19, .st22, .st24, .st25, .st26, .st30 {
        stroke-width: 2px;
      }

      .st1, .st32, .st17 {
        fill: #0071bc;
      }

      .st2 {
        fill: #ffcf4e;
      }

      .st3 {
        fill: #ffcf8a;
      }

      .st4 {
        fill: #22b573;
      }

      .st5 {
        fill: #c1272d;
      }

      .st6 {
        fill: #8aa7ff;
      }

      .st8 {
        fill: #ffe894;
      }

      .st9 {
        fill: #006837;
      }

      .st10 {
        fill: #fcee21;
      }

      .st33 {
        fill: #5f71ff;
      }

      .st34 {
        fill: #8cc63f;
      }

      .st11 {
        fill: #ffe36a;
      }

      .st12 {
        fill: #a67c52;
      }

      .st35 {
        fill: #fff3df;
      }

      .st13 {
        fill: #db9b55;
      }

      .st14 {
        fill: #7faaff;
      }

      .st15 {
        fill: #c69c6d;
      }

      .st16 {
        fill: #e8a755;
      }

      .st36, .st18 {
        fill: #fff;
      }

      .st19, .st20, .st37 {
        fill: #29abe2;
      }

      .st21 {
        fill: #c7b299;
      }

      .st22 {
        fill: #ffba4a;
      }

      .st23, .st25 {
        fill: none;
      }

      .st24 {
        fill: #b2c5cc;
      }

      .st26 {
        fill: #ffd28a;
      }

      .st27 {
        fill: gray;
      }

      .st38 {
        fill: #fbb03b;
      }

      .st39 {
        font-family: AnnaiMN-Regular, 'Annai MN';
        font-size: 26px;
      }

      .st29 {
        fill: #9e005d;
      }

      .st30 {
        fill: #2e3192;
      }

      .st31 {
        fill: #e6e6e6;
      }

      .st40 {
        fill: #aae5ff;
      }

      .st41 {
        fill: #cbdce6;
      }
    </style>
  </defs>
  <g>
    <g>
      <g>
        <rect class="st35" x="23.29" y="49.93" width="1229.19" height="693.6"/>
        <polyline class="st25" points="23.29 61.62 186.84 107.43 178.76 608.66"/>
        <polyline class="st25" points="1247.24 61.62 1158.31 108.78 186.84 107.43"/>
      </g>
      <polyline class="st25" points="23.29 614.05 1165.04 614.05 1158.31 108.78"/>
    </g>
    <line class="st25" x1="1252.48" y1="649.08" x2="1165.04" y2="614.05"/>
  </g>
  <polygon class="st31" points="1252.48 999.79 1256.71 643.78 1165.04 614.05 23.29 614.05 23.29 999.79 1252.48 999.79"/>
  <g>
    <polygon class="st11" points="195.85 61.62 258.48 85.2 409.93 79.91 378.04 61.62 195.85 61.62"/>
    <polygon class="st11" points="597.81 61.62 611.47 85.2 767.48 85.2 767.48 61.62 597.81 61.62"/>
    <polygon class="st11" points="951.95 79.91 974.72 56 1142.11 56 1090.87 79.91 951.95 79.91"/>
  </g>
  <rect class="st26" x="248.7" y="247.19" width="532.86" height="217.26"/>
  <rect class="st18" x="260.13" y="256.56" width="514.95" height="207.9"/>
  <rect class="st22" x="238.88" y="464.45" width="556.68" height="12.86"/>
  <g>
    <rect class="st18" x="818.12" y="152.85" width="361.69" height="228.62"/>
    <rect class="st8" x="811.98" y="381.46" width="374.66" height="10.92"/>
    <rect class="st20" x="815.85" y="146.54" width="363.97" height="6.31"/>
    <rect class="st8" x="811.91" y="124.24" width="369.5" height="22.3"/>
    <g>
      <path class="st37" d="M810.65,122.97c-2.39-.23-5.04-.38-6.92,1.1-1.36,1.07-2.02,2.8-2.51,4.46-.41,1.4-.73,2.82-.97,4.25-.13.77-.24,1.55-.13,2.33.15,1.04.69,1.99,1.23,2.89.98,1.62,2.04,3.22,3.46,4.47s3.27,2.11,5.16,2.01c.22-.01.46-.04.63-.19.25-.21.27-.58.28-.91.09-6.74.17-13.48.26-20.22"/>
      <path d="M810.65,121.47c-3.73-.34-7.6-.02-9.64,3.57-.94,1.64-1.41,3.57-1.82,5.4-.46,2.04-.96,4.22-.18,6.24.7,1.81,1.87,3.52,3.07,5.03s2.63,2.79,4.39,3.56c1.52.66,4.31,1.4,5.47-.26.55-.78.45-1.78.47-2.69.02-1.19.03-2.39.05-3.58.07-5.2.13-10.39.2-15.59.02-1.93-2.98-1.93-3,0-.05,3.65-.09,7.3-.14,10.95-.02,1.83-.05,3.65-.07,5.48-.01.91-.02,1.83-.04,2.74,0,.14-.1,1.04-.01,1.1-.02-.02.63-.39.59-.45-.04-.05-.62,0-.71,0-3.13-.28-5.14-3.28-6.62-5.73-.38-.64-.79-1.29-.97-2.02-.22-.87-.04-1.76.12-2.63.3-1.6.67-3.22,1.22-4.76.5-1.41,1.31-2.71,2.8-3.2s3.24-.32,4.83-.17c1.92.18,1.91-2.82,0-3h0Z"/>
    </g>
    <g>
      <path class="st37" d="M1181,124.58c.04,7.18.63,14.35,1.74,21.44,3.43-.43,7.28-1.1,9.2-3.97.63-.94.99-2.04,1.19-3.16.66-3.62-.31-7.5-2.59-10.38s-5.83-4.73-9.5-4.92"/>
      <path d="M1179.5,124.58c.06,7.32.67,14.61,1.8,21.84.09.58.85,1.18,1.45,1.1,3.07-.39,6.31-.87,8.8-2.86,2.78-2.22,3.58-6.08,3.21-9.48-.79-7.17-6.54-12.6-13.71-13.09-1.93-.13-1.92,2.87,0,3,5.48.37,10.05,4.65,10.72,10.11.3,2.5-.05,5.58-2.18,7.22-1.9,1.46-4.52,1.82-6.83,2.11l1.45,1.1c-1.08-6.96-1.63-14-1.69-21.04-.01-1.93-3.02-1.93-3,0h0Z"/>
    </g>
    <path d="M993.55,391.3c-1.99-.24-4.16-.07-5.93.96-1.94,1.14-2.92,3.18-3.23,5.33-.34,2.32-.33,4.78.63,6.96.8,1.81,2.32,3.2,4.1,4.03,3.78,1.77,9.09,1.99,12.41-.86,2.74-2.36,3.71-6.63,2.44-9.98-1.62-4.29-6.26-6.86-10.75-6.56-1.92.13-1.93,3.13,0,3,2.79-.19,5.78.95,7.33,3.38,1.37,2.15,1.28,5.12-.29,7.16-1.92,2.49-5.62,2.47-8.39,1.7-1.34-.38-2.69-1.04-3.56-2.16-1.02-1.31-1.16-3.06-1.1-4.66s.24-3.47,1.54-4.5,3.23-1,4.81-.81c.81.1,1.5-.76,1.5-1.5,0-.89-.69-1.4-1.5-1.5h0Z"/>
  </g>
  <rect class="st23" x="570.15" y="279.94" width="70.27" height="31.23"/>
  <rect class="st23" x="633.17" y="396.73" width="60.79" height="29.89"/>
  <rect class="st28" x="377.17" y="455.06" width="53.54" height="13.39"/>
  <polygon class="st17" points="559.55 355.82 605.29 330.13 651.02 355.82 602.5 381.46 559.55 355.82"/>
  <line class="st23" x1="605.29" y1="311.17" x2="605.29" y2="330.13"/>
  <polyline class="st23" points="570.15 295.55 537.73 295.55 537.73 344.05"/>
  <line class="st23" x1="527.31" y1="357.24" x2="559.55" y2="355.82"/>
  <polyline class="st23" points="602.5 381.46 600.95 411.68 633.17 411.68"/>
  <polyline class="st23" points="651.02 355.82 663.57 355.8 663.57 390.84"/>
  <line class="st23" x1="675.58" y1="319.8" x2="748.13" y2="319.8"/>
  <line class="st23" x1="673.15" y1="334.52" x2="684.99" y2="334.52"/>
  <line class="st23" x1="693.96" y1="334.52" x2="723.54" y2="334.52"/>
  <line class="st23" x1="700.78" y1="348.78" x2="742.66" y2="348.78"/>
  <line class="st23" x1="693.96" y1="366.39" x2="740.24" y2="366.39"/>
  <text class="st39" transform="translate(285.95 343.73)"><tspan x="0" y="0">Hello, World!</tspan></text>
  <g>
    <g>
      <rect class="st3" x="439.32" y="625.4" width="13.87" height="86.02"/>
      <g>
        <rect class="st3" x="722.09" y="583.65" width="13.87" height="83.46"/>
        <polygon class="st3" points="428.96 614 486.8 561.11 742.32 557.31 686.76 614 428.96 614"/>
        <polygon class="st3" points="690.03 625.4 689.14 611.57 742.32 557.31 742.32 576.23 690.03 625.4"/>
        <polygon class="st3" points="428.96 625.4 428.96 614 689.14 611.57 690.03 625.4 428.96 625.4"/>
        <rect class="st3" x="670.47" y="624.81" width="14.64" height="84.6"/>
      </g>
    </g>
    <g>
      <path class="st32" d="M513.41,660.52c-6.27,1.94-11.39,7.25-13.09,13.59-.79,2.92-.77,6.35,1.24,8.62,1.43,1.61,3.59,2.33,5.68,2.89,17.14,4.55,35.24,2.21,52.97,2.82,14.45.5,29.49,2.89,42.97-2.35,4.56-1.77,8.76-4.36,12.68-7.29,4.93-3.69,9.49-7.99,12.68-13.26.68-1.13,1.32-2.37,1.28-3.68-.05-1.71-1.27-3.23-2.76-4.08s-3.22-1.15-4.92-1.38c-12.03-1.63-24.24-.41-36.38-.32-12.25.09-24.48-.98-36.73-.89s-24.68,1.38-36.03,5.98"/>
      <path d="M513.01,659.07c-7.53,2.41-13.83,9.27-14.61,17.29-.2,2.06.08,4.23,1.11,6.05s2.82,3.04,4.77,3.82c4.39,1.76,9.42,2.4,14.09,2.94,10.32,1.21,20.74.76,31.11.66,5.09-.05,10.17.02,15.25.3s9.87.64,14.82.74c9.7.21,19.46-.79,28.23-5.22,4.22-2.13,8.13-4.88,11.78-7.88,3.5-2.88,6.69-6.15,9.25-9.9,1.28-1.87,2.68-4.02,2.47-6.39-.18-2.01-1.5-3.74-3.16-4.81-1.99-1.29-4.42-1.58-6.72-1.87-2.6-.33-5.21-.53-7.83-.63-10.76-.45-21.52.53-32.29.39-20.57-.26-41.64-2.97-61.76,2.78-2.35.67-4.66,1.47-6.93,2.38-1.77.71-1,3.61.8,2.89,17.95-7.19,37.55-6.12,56.47-5.38,9.92.39,19.76.28,29.68-.02,5-.15,10-.25,15,0,2.46.12,4.91.32,7.35.65,1.97.27,4.3.62,5.65,2.25,1.58,1.9.14,4-.99,5.73s-2.48,3.4-3.91,4.94c-2.9,3.12-6.22,5.85-9.72,8.27-3.67,2.55-7.61,4.76-11.85,6.2s-8.85,2.21-13.4,2.49c-9.17.57-18.33-.5-27.49-.81-9.53-.33-19.07.19-28.6.04-4.82-.08-9.65-.31-14.43-.94-2.35-.31-4.69-.73-7-1.25-1.99-.45-4.14-.86-5.93-1.86-3.73-2.07-3.21-6.72-1.9-10.15s3.68-6.36,6.63-8.41c1.5-1.04,3.12-1.84,4.85-2.4,1.83-.59,1.05-3.48-.8-2.89h0Z"/>
    </g>
    <rect class="st2" x="517.86" y="687.61" width="10.9" height="64.21"/>
    <polygon class="st2" points="592 778.53 606.17 778.53 603.17 686.08 592 687.61 592 778.53"/>
    <polygon class="st2" points="629.8 736.29 638.6 736.29 628.52 665.53 619.42 675.93 629.8 736.29"/>
    <g>
      <polygon class="st24" points="618.27 602.94 645.15 572 527.64 578.8 501.07 599.82 618.27 602.94"/>
      <rect class="st30" x="523.72" y="519.63" width="102.41" height="66.03" rx="3.31" ry="3.31"/>
      <rect class="st14" x="531.68" y="528.28" width="85.27" height="50.53" rx="3.04" ry="3.04"/>
    </g>
    <g>
      <path class="st32" d="M538.17,663.48c-13.51.76-27.87,1.34-39.65-5.3-3.07-1.73-5.95-4-7.69-7.06-1.99-3.5-2.32-7.68-2.47-11.71-.19-5.4-.14-10.81.16-16.21.33-5.93.98-11.92,3.1-17.46s5.88-10.65,11.15-13.37c5.91-3.05,12.91-2.79,19.54-2.46,16.7.83,33.39,1.66,50.09,2.49,2.6.13,5.33.3,7.54,1.69,2.54,1.61,3.89,4.55,4.86,7.4,5.96,17.55,2.55,36.78-1.76,54.8-.65,2.7-1.41,5.56-3.45,7.43-2.91,2.66-7.36,2.45-11.29,2.07-11.28-1.1-22.56-2.26-33.83-3.5"/>
      <path d="M538.17,661.98c-9.38.53-19.02,1.06-28.25-1.07-4.53-1.05-8.97-2.73-12.81-5.37s-6.17-6.41-6.86-11.11c-.75-5.09-.57-10.44-.44-15.57s.34-10.39,1.28-15.47c1.64-8.81,6.16-17.95,15.27-20.87,4.58-1.47,9.48-1.39,14.23-1.18,5.38.23,10.75.53,16.12.8,10.91.54,21.82,1.08,32.73,1.63,2.41.12,4.94.06,7.3.64,2.18.53,3.79,1.78,4.94,3.7,2.37,3.96,3.36,9.03,4.06,13.53,1.58,10.09.62,20.47-1.18,30.47-.89,4.94-1.95,9.87-3.18,14.74-.5,1.98-1.1,4.09-2.57,5.58s-3.44,1.96-5.4,2.08c-2.19.14-4.39-.12-6.57-.33-2.7-.26-5.4-.53-8.09-.8-5.39-.54-10.79-1.1-16.18-1.68-2.7-.29-5.39-.58-8.09-.88-1.92-.21-1.9,2.79,0,3,11.51,1.27,23.03,2.57,34.57,3.57,4.25.37,9.25.27,12.25-3.26,1.45-1.7,2.25-3.8,2.82-5.94.69-2.57,1.25-5.18,1.82-7.78,2.32-10.61,4.06-21.52,3.45-32.41-.29-5.27-1.13-10.53-2.71-15.58-1.38-4.4-3.34-8.86-7.98-10.56-2.31-.84-4.86-.88-7.28-1-2.98-.15-5.95-.3-8.93-.44-5.87-.29-11.74-.58-17.61-.88s-11.74-.58-17.61-.88c-5.26-.26-10.61-.77-15.87-.2-4.93.53-9.54,2.09-13.37,5.31-3.52,2.96-6.04,6.97-7.73,11.22-1.98,4.99-2.74,10.39-3.13,15.71-.43,5.73-.53,11.5-.37,17.24.14,4.96.34,10.31,3.12,14.61,2.61,4.04,6.91,6.74,11.24,8.63,9.25,4.04,19.51,4.5,29.46,4.17,2.51-.08,5.02-.22,7.53-.36,1.92-.11,1.93-3.11,0-3h0Z"/>
    </g>
    <polygon class="st2" points="525.22 639.8 550.02 639.8 552.75 693.49 528.49 693.49 525.22 639.8"/>
  </g>
  <g>
    <g>
      <rect class="st3" x="80.84" y="631.49" width="13.87" height="86.02"/>
      <g>
        <rect class="st3" x="363.61" y="589.75" width="13.87" height="83.46"/>
        <polygon class="st3" points="70.48 620.09 128.32 567.21 383.84 563.4 328.28 620.09 70.48 620.09"/>
        <polygon class="st3" points="331.55 631.49 330.66 617.67 383.84 563.4 383.84 582.32 331.55 631.49"/>
        <polygon class="st3" points="70.48 631.49 70.48 620.09 330.66 617.67 331.55 631.49 70.48 631.49"/>
        <rect class="st3" x="311.99" y="630.9" width="14.64" height="84.6"/>
      </g>
    </g>
    <g>
      <path class="st32" d="M154.93,666.61c-6.27,1.94-11.39,7.25-13.09,13.59-.79,2.92-.77,6.35,1.24,8.62,1.43,1.61,3.59,2.33,5.68,2.89,17.14,4.55,35.24,2.21,52.97,2.82,14.45.5,29.49,2.89,42.97-2.35,4.56-1.77,8.76-4.36,12.68-7.29,4.93-3.69,9.49-7.99,12.68-13.26.68-1.13,1.32-2.37,1.28-3.68-.05-1.71-1.27-3.23-2.76-4.08s-3.22-1.15-4.92-1.38c-12.03-1.63-24.24-.41-36.38-.32-12.25.09-24.48-.98-36.73-.89s-24.68,1.38-36.03,5.98"/>
      <path d="M154.53,665.16c-7.53,2.41-13.83,9.27-14.61,17.29-.2,2.06.08,4.23,1.11,6.05s2.82,3.04,4.77,3.82c4.39,1.76,9.42,2.4,14.09,2.94,10.32,1.21,20.74.76,31.11.66,5.09-.05,10.17.02,15.25.3,4.94.27,9.87.64,14.82.74,9.7.21,19.46-.79,28.23-5.22,4.22-2.13,8.13-4.88,11.78-7.88,3.5-2.88,6.69-6.15,9.25-9.9,1.28-1.87,2.68-4.02,2.47-6.39-.18-2.01-1.5-3.74-3.16-4.81-1.99-1.29-4.42-1.58-6.72-1.87-2.6-.33-5.21-.53-7.83-.63-10.76-.45-21.52.53-32.29.39-20.57-.26-41.64-2.97-61.76,2.78-2.35.67-4.66,1.47-6.93,2.38-1.77.71-1,3.61.8,2.89,17.95-7.19,37.55-6.12,56.47-5.38,9.92.39,19.76.28,29.68-.02,5-.15,10-.25,15,0,2.46.12,4.91.32,7.35.65,1.97.27,4.3.62,5.65,2.25,1.58,1.9.14,4-.99,5.73s-2.48,3.4-3.91,4.94c-2.9,3.12-6.22,5.85-9.72,8.27-3.67,2.55-7.61,4.76-11.85,6.2s-8.85,2.21-13.4,2.49c-9.17.57-18.33-.5-27.49-.81s-19.07.19-28.6.04c-4.82-.08-9.65-.31-14.43-.94-2.35-.31-4.69-.73-7-1.25-1.99-.45-4.14-.86-5.93-1.86-3.73-2.07-3.21-6.72-1.9-10.15s3.68-6.36,6.63-8.41c1.5-1.04,3.12-1.84,4.85-2.4,1.83-.59,1.05-3.48-.8-2.89h0Z"/>
    </g>
    <rect class="st2" x="159.38" y="693.7" width="10.9" height="64.21"/>
    <polygon class="st2" points="233.51 784.63 247.69 784.63 244.69 692.18 233.51 693.7 233.51 784.63"/>
    <polygon class="st2" points="271.32 742.38 280.12 742.38 270.04 671.62 260.94 682.02 271.32 742.38"/>
    <g>
      <polygon class="st24" points="259.79 609.04 286.67 578.1 169.15 584.9 142.59 605.91 259.79 609.04"/>
      <rect class="st30" x="165.24" y="525.72" width="102.41" height="66.03" rx="3.31" ry="3.31"/>
      <rect class="st14" x="173.19" y="534.37" width="85.27" height="50.53" rx="3.04" ry="3.04"/>
    </g>
    <g>
      <path class="st32" d="M179.68,669.58c-13.51.76-27.87,1.34-39.65-5.3-3.07-1.73-5.95-4-7.69-7.06-1.99-3.5-2.32-7.68-2.47-11.71-.19-5.4-.14-10.81.16-16.21.33-5.93.98-11.92,3.1-17.46s5.88-10.65,11.15-13.37c5.91-3.05,12.91-2.79,19.54-2.46,16.7.83,33.39,1.66,50.09,2.49,2.6.13,5.33.3,7.54,1.69,2.54,1.61,3.89,4.55,4.86,7.4,5.96,17.55,2.55,36.78-1.76,54.8-.65,2.7-1.41,5.56-3.45,7.43-2.91,2.66-7.36,2.45-11.29,2.07-11.28-1.1-22.56-2.26-33.83-3.5"/>
      <path d="M179.68,668.08c-9.38.53-19.02,1.06-28.25-1.07-4.53-1.05-8.97-2.73-12.81-5.37s-6.17-6.41-6.86-11.11c-.75-5.09-.57-10.44-.44-15.57s.34-10.39,1.28-15.47c1.64-8.81,6.16-17.95,15.27-20.87,4.58-1.47,9.48-1.39,14.23-1.18,5.38.23,10.75.53,16.12.8,10.91.54,21.82,1.08,32.73,1.63,2.41.12,4.94.06,7.3.64,2.18.53,3.79,1.78,4.94,3.7,2.37,3.96,3.36,9.03,4.06,13.53,1.58,10.09.62,20.47-1.18,30.47-.89,4.94-1.95,9.87-3.18,14.74-.5,1.98-1.1,4.09-2.57,5.58s-3.44,1.96-5.4,2.08c-2.19.14-4.39-.12-6.57-.33-2.7-.26-5.4-.53-8.09-.8-5.39-.54-10.79-1.1-16.18-1.68-2.7-.29-5.39-.58-8.09-.88-1.92-.21-1.9,2.79,0,3,11.51,1.27,23.03,2.57,34.57,3.57,4.25.37,9.25.27,12.25-3.26,1.45-1.7,2.25-3.8,2.82-5.94.69-2.57,1.25-5.18,1.82-7.78,2.32-10.61,4.06-21.52,3.45-32.41-.29-5.27-1.13-10.53-2.71-15.58-1.38-4.4-3.34-8.86-7.98-10.56-2.31-.84-4.86-.88-7.28-1-2.98-.15-5.95-.3-8.93-.44-5.87-.29-11.74-.58-17.61-.88s-11.74-.58-17.61-.88c-5.26-.26-10.61-.77-15.87-.2-4.93.53-9.54,2.09-13.37,5.31-3.52,2.96-6.04,6.97-7.73,11.22-1.98,4.99-2.74,10.39-3.13,15.71-.43,5.73-.53,11.5-.37,17.24.14,4.96.34,10.31,3.12,14.61,2.61,4.04,6.91,6.74,11.24,8.63,9.25,4.04,19.51,4.5,29.46,4.17,2.51-.08,5.02-.22,7.53-.36,1.92-.11,1.93-3.11,0-3h0Z"/>
    </g>
    <polygon class="st2" points="166.74 645.89 191.54 645.89 194.27 699.59 170.01 699.59 166.74 645.89"/>
  </g>
  <g>
    <g>
      <rect class="st3" x="120.16" y="820.78" width="13.87" height="86.02"/>
      <g>
        <rect class="st3" x="402.94" y="779.04" width="13.87" height="83.46"/>
        <polygon class="st3" points="109.8 809.38 167.65 756.5 423.16 752.7 367.6 809.38 109.8 809.38"/>
        <polygon class="st3" points="370.87 820.78 369.98 806.96 423.16 752.7 423.16 771.61 370.87 820.78"/>
        <polygon class="st3" points="109.8 820.78 109.8 809.38 369.98 806.96 370.87 820.78 109.8 820.78"/>
        <rect class="st3" x="351.31" y="820.19" width="14.64" height="84.6"/>
      </g>
    </g>
    <g>
      <path class="st32" d="M194.25,855.9c-6.27,1.94-11.39,7.25-13.09,13.59-.79,2.92-.77,6.35,1.24,8.62,1.43,1.61,3.59,2.33,5.68,2.89,17.14,4.55,35.24,2.21,52.97,2.82,14.45.5,29.49,2.89,42.97-2.35,4.56-1.77,8.76-4.36,12.68-7.29,4.93-3.69,9.49-7.99,12.68-13.26.68-1.13,1.32-2.37,1.28-3.68-.05-1.71-1.27-3.23-2.76-4.08s-3.22-1.15-4.92-1.38c-12.03-1.63-24.24-.41-36.38-.32-12.25.09-24.48-.98-36.73-.89s-24.68,1.38-36.03,5.98"/>
      <path d="M193.85,854.46c-7.53,2.41-13.83,9.27-14.61,17.29-.2,2.06.08,4.23,1.11,6.05s2.82,3.04,4.77,3.82c4.39,1.76,9.42,2.4,14.09,2.94,10.32,1.21,20.74.76,31.11.66,5.09-.05,10.17.02,15.25.3s9.87.64,14.82.74c9.7.21,19.46-.79,28.23-5.22,4.22-2.13,8.13-4.88,11.78-7.88s6.69-6.15,9.25-9.9c1.28-1.87,2.68-4.02,2.47-6.39-.18-2.01-1.5-3.74-3.16-4.81-1.99-1.29-4.42-1.58-6.72-1.87-2.6-.33-5.21-.53-7.83-.63-10.76-.45-21.52.53-32.29.39-20.57-.26-41.64-2.97-61.76,2.78-2.35.67-4.66,1.47-6.93,2.38-1.77.71-1,3.61.8,2.89,17.95-7.19,37.55-6.12,56.47-5.38,9.92.39,19.76.28,29.68-.02,5-.15,10-.25,15,0,2.46.12,4.91.32,7.35.65,1.97.27,4.3.62,5.65,2.25,1.58,1.9.14,4-.99,5.73s-2.48,3.4-3.91,4.94c-2.9,3.12-6.22,5.85-9.72,8.27-3.67,2.55-7.61,4.76-11.85,6.2s-8.85,2.21-13.4,2.49c-9.17.57-18.33-.5-27.49-.81-9.53-.33-19.07.19-28.6.04-4.82-.08-9.65-.31-14.43-.94-2.35-.31-4.69-.73-7-1.25-1.99-.45-4.14-.86-5.93-1.86-3.73-2.07-3.21-6.72-1.9-10.15s3.68-6.36,6.63-8.41c1.5-1.04,3.12-1.84,4.85-2.4,1.83-.59,1.05-3.48-.8-2.89h0Z"/>
    </g>
    <rect class="st2" x="198.7" y="883" width="10.9" height="64.21"/>
    <polygon class="st2" points="272.84 973.92 287.01 973.92 284.01 881.47 272.84 883 272.84 973.92"/>
    <polygon class="st2" points="310.65 931.67 319.44 931.67 309.37 860.91 300.26 871.32 310.65 931.67"/>
    <g>
      <polygon class="st24" points="299.11 798.33 325.99 767.39 208.48 774.19 181.91 795.21 299.11 798.33"/>
      <rect class="st30" x="204.56" y="715.01" width="102.41" height="66.03" rx="3.31" ry="3.31"/>
      <rect class="st14" x="212.52" y="723.66" width="85.27" height="50.53" rx="3.04" ry="3.04"/>
    </g>
    <g>
      <path class="st32" d="M219.01,858.87c-13.51.76-27.87,1.34-39.65-5.3-3.07-1.73-5.95-4-7.69-7.06-1.99-3.5-2.32-7.68-2.47-11.71-.19-5.4-.14-10.81.16-16.21.33-5.93.98-11.92,3.1-17.46s5.88-10.65,11.15-13.37c5.91-3.05,12.91-2.79,19.54-2.46,16.7.83,33.39,1.66,50.09,2.49,2.6.13,5.33.3,7.54,1.69,2.54,1.61,3.89,4.55,4.86,7.4,5.96,17.55,2.55,36.78-1.76,54.8-.65,2.7-1.41,5.56-3.45,7.43-2.91,2.66-7.36,2.45-11.29,2.07-11.28-1.1-22.56-2.26-33.83-3.5"/>
      <path d="M219.01,857.37c-9.38.53-19.02,1.06-28.25-1.07-4.53-1.05-8.97-2.73-12.81-5.37s-6.17-6.41-6.86-11.11c-.75-5.09-.57-10.44-.44-15.57s.34-10.39,1.28-15.47c1.64-8.81,6.16-17.95,15.27-20.87,4.58-1.47,9.48-1.39,14.23-1.18,5.38.23,10.75.53,16.12.8,10.91.54,21.82,1.08,32.73,1.63,2.41.12,4.94.06,7.3.64,2.18.53,3.79,1.78,4.94,3.7,2.37,3.96,3.36,9.03,4.06,13.53,1.58,10.09.62,20.47-1.18,30.47-.89,4.94-1.95,9.87-3.18,14.74-.5,1.98-1.1,4.09-2.57,5.58s-3.44,1.96-5.4,2.08c-2.19.14-4.39-.12-6.57-.33-2.7-.26-5.4-.53-8.09-.8-5.39-.54-10.79-1.1-16.18-1.68-2.7-.29-5.39-.58-8.09-.88-1.92-.21-1.9,2.79,0,3,11.51,1.27,23.03,2.57,34.57,3.57,4.25.37,9.25.27,12.25-3.26,1.45-1.7,2.25-3.8,2.82-5.94.69-2.57,1.25-5.18,1.82-7.78,2.32-10.61,4.06-21.52,3.45-32.41-.29-5.27-1.13-10.53-2.71-15.58-1.38-4.4-3.34-8.86-7.98-10.56-2.31-.84-4.86-.88-7.28-1-2.98-.15-5.95-.3-8.93-.44-5.87-.29-11.74-.58-17.61-.88s-11.74-.58-17.61-.88c-5.26-.26-10.61-.77-15.87-.2-4.93.53-9.54,2.09-13.37,5.31-3.52,2.96-6.04,6.97-7.73,11.22-1.98,4.99-2.74,10.39-3.13,15.71-.43,5.73-.53,11.5-.37,17.24.14,4.96.34,10.31,3.12,14.61,2.61,4.04,6.91,6.74,11.24,8.63,9.25,4.04,19.51,4.5,29.46,4.17,2.51-.08,5.02-.22,7.53-.36,1.92-.11,1.93-3.11,0-3h0Z"/>
    </g>
    <polygon class="st2" points="206.06 835.19 230.86 835.19 233.59 888.88 209.33 888.88 206.06 835.19"/>
  </g>
  <g>
    <g>
      <rect class="st3" x="486.85" y="813.71" width="13.87" height="86.02"/>
      <g>
        <rect class="st3" x="769.63" y="771.97" width="13.87" height="83.46"/>
        <polygon class="st3" points="476.49 802.31 534.34 749.43 789.85 745.62 734.29 802.31 476.49 802.31"/>
        <polygon class="st3" points="737.56 813.71 736.67 799.89 789.85 745.62 789.85 764.54 737.56 813.71"/>
        <polygon class="st3" points="476.49 813.71 476.49 802.31 736.67 799.89 737.56 813.71 476.49 813.71"/>
        <rect class="st3" x="718" y="813.12" width="14.64" height="84.6"/>
      </g>
    </g>
    <g>
      <path class="st32" d="M560.94,848.83c-6.27,1.94-11.39,7.25-13.09,13.59-.79,2.92-.77,6.35,1.24,8.62,1.43,1.61,3.59,2.33,5.68,2.89,17.14,4.55,35.24,2.21,52.97,2.82,14.45.5,29.49,2.89,42.97-2.35,4.56-1.77,8.76-4.36,12.68-7.29,4.93-3.69,9.49-7.99,12.68-13.26.68-1.13,1.32-2.37,1.28-3.68-.05-1.71-1.27-3.23-2.76-4.08s-3.22-1.15-4.92-1.38c-12.03-1.63-24.24-.41-36.38-.32-12.25.09-24.48-.98-36.73-.89s-24.68,1.38-36.03,5.98"/>
      <path d="M560.54,847.38c-7.53,2.41-13.83,9.27-14.61,17.29-.2,2.06.08,4.23,1.11,6.05s2.82,3.04,4.77,3.82c4.39,1.76,9.42,2.4,14.09,2.94,10.32,1.21,20.74.76,31.11.66,5.09-.05,10.17.02,15.25.3,4.94.27,9.87.64,14.82.74,9.7.21,19.46-.79,28.23-5.22,4.22-2.13,8.13-4.88,11.78-7.88s6.69-6.15,9.25-9.9c1.28-1.87,2.68-4.02,2.47-6.39-.18-2.01-1.5-3.74-3.16-4.81-1.99-1.29-4.42-1.58-6.72-1.87-2.6-.33-5.21-.53-7.83-.63-10.76-.45-21.52.53-32.29.39-20.57-.26-41.64-2.97-61.76,2.78-2.35.67-4.66,1.47-6.93,2.38-1.77.71-1,3.61.8,2.89,17.95-7.19,37.55-6.12,56.47-5.38,9.92.39,19.76.28,29.68-.02,5-.15,10-.25,15,0,2.46.12,4.91.32,7.35.65,1.97.27,4.3.62,5.65,2.25,1.58,1.9.14,4-.99,5.73s-2.48,3.4-3.91,4.94c-2.9,3.12-6.22,5.85-9.72,8.27-3.67,2.55-7.61,4.76-11.85,6.2s-8.85,2.21-13.4,2.49c-9.17.57-18.33-.5-27.49-.81-9.53-.33-19.07.19-28.6.04-4.82-.08-9.65-.31-14.43-.94-2.35-.31-4.69-.73-7-1.25-1.99-.45-4.14-.86-5.93-1.86-3.73-2.07-3.21-6.72-1.9-10.15s3.68-6.36,6.63-8.41c1.5-1.04,3.12-1.84,4.85-2.4,1.83-.59,1.05-3.48-.8-2.89h0Z"/>
    </g>
    <rect class="st2" x="565.39" y="875.93" width="10.9" height="64.21"/>
    <polygon class="st2" points="639.53 966.85 653.7 966.85 650.7 874.4 639.53 875.93 639.53 966.85"/>
    <polygon class="st2" points="677.34 924.6 686.14 924.6 676.06 853.84 666.95 864.24 677.34 924.6"/>
    <g>
      <polygon class="st24" points="665.8 791.26 692.68 760.32 575.17 767.12 548.6 788.13 665.8 791.26"/>
      <rect class="st30" x="571.26" y="707.94" width="102.41" height="66.03" rx="3.31" ry="3.31"/>
      <rect class="st14" x="579.21" y="716.59" width="85.27" height="50.53" rx="3.04" ry="3.04"/>
    </g>
    <g>
      <path class="st32" d="M585.7,851.8c-13.51.76-27.87,1.34-39.65-5.3-3.07-1.73-5.95-4-7.69-7.06-1.99-3.5-2.32-7.68-2.47-11.71-.19-5.4-.14-10.81.16-16.21.33-5.93.98-11.92,3.1-17.46s5.88-10.65,11.15-13.37c5.91-3.05,12.91-2.79,19.54-2.46,16.7.83,33.39,1.66,50.09,2.49,2.6.13,5.33.3,7.54,1.69,2.54,1.61,3.89,4.55,4.86,7.4,5.96,17.55,2.55,36.78-1.76,54.8-.65,2.7-1.41,5.56-3.45,7.43-2.91,2.66-7.36,2.45-11.29,2.07-11.28-1.1-22.56-2.26-33.83-3.5"/>
      <path d="M585.7,850.3c-9.38.53-19.02,1.06-28.25-1.07-4.53-1.05-8.97-2.73-12.81-5.37s-6.17-6.41-6.86-11.11c-.75-5.09-.57-10.44-.44-15.57s.34-10.39,1.28-15.47c1.64-8.81,6.16-17.95,15.27-20.87,4.58-1.47,9.48-1.39,14.23-1.18,5.38.23,10.75.53,16.12.8,10.91.54,21.82,1.08,32.73,1.63,2.41.12,4.94.06,7.3.64,2.18.53,3.79,1.78,4.94,3.7,2.37,3.96,3.36,9.03,4.06,13.53,1.58,10.09.62,20.47-1.18,30.47-.89,4.94-1.95,9.87-3.18,14.74-.5,1.98-1.1,4.09-2.57,5.58s-3.44,1.96-5.4,2.08c-2.19.14-4.39-.12-6.57-.33-2.7-.26-5.4-.53-8.09-.8-5.39-.54-10.79-1.1-16.18-1.68-2.7-.29-5.39-.58-8.09-.88-1.92-.21-1.9,2.79,0,3,11.51,1.27,23.03,2.57,34.57,3.57,4.25.37,9.25.27,12.25-3.26,1.45-1.7,2.25-3.8,2.82-5.94.69-2.57,1.25-5.18,1.82-7.78,2.32-10.61,4.06-21.52,3.45-32.41-.29-5.27-1.13-10.53-2.71-15.58-1.38-4.4-3.34-8.86-7.98-10.56-2.31-.84-4.86-.88-7.28-1-2.98-.15-5.95-.3-8.93-.44-5.87-.29-11.74-.58-17.61-.88s-11.74-.58-17.61-.88c-5.26-.26-10.61-.77-15.87-.2-4.93.53-9.54,2.09-13.37,5.31-3.52,2.96-6.04,6.97-7.73,11.22-1.98,4.99-2.74,10.39-3.13,15.71-.43,5.73-.53,11.5-.37,17.24.14,4.96.34,10.31,3.12,14.61,2.61,4.04,6.91,6.74,11.24,8.63,9.25,4.04,19.51,4.5,29.46,4.17,2.51-.08,5.02-.22,7.53-.36,1.92-.11,1.93-3.11,0-3h0Z"/>
    </g>
    <polygon class="st2" points="572.75 828.11 597.55 828.11 600.28 881.81 576.02 881.81 572.75 828.11"/>
  </g>
  <g>
    <rect class="st3" x="23.29" y="386.26" width="175.95" height="10.15"/>
    <rect class="st12" x="23.29" y="233.37" width="41.57" height="17.92"/>
    <rect class="st5" x="78.28" y="233.37" width="15.68" height="59.12"/>
    <rect class="st9" x="64.87" y="232.51" width="13.41" height="59.99"/>
    <rect class="st19" x="93.96" y="234.78" width="13" height="57.72"/>
    <rect class="st15" x="23.29" y="251.29" width="30.43" height="41.21"/>
    <g>
      <path class="st34" d="M138.94,272.71c-4.4-2.29-8.44-5.28-11.92-8.82-.78-.8-1.56-1.66-1.93-2.71s-.24-2.36.6-3.11c1.42-1.27,3.66-.23,5.17.94,4.41,3.4,8.16,7.66,10.95,12.48-3.46-4.57-6.3-9.62-8.41-14.95-1.71-4.33-2.72-9.83.53-13.17.66-.67,1.5-1.22,2.43-1.3,1.12-.1,2.19.49,3.06,1.2,3.25,2.66,4.5,7.07,4.88,11.25.51,5.62-.24,11.35-2.17,16.65,1.38-4.53,2.8-9.12,5.4-13.07s6.61-7.24,11.3-7.85c1.87-.24,4.14.18,4.9,1.9.66,1.48-.12,3.19-.99,4.56-5.06,8.02-13.66,13.7-23.02,15.23"/>
      <path d="M139.7,271.41c-3.05-1.61-5.95-3.51-8.57-5.75-1.26-1.07-2.53-2.2-3.62-3.45-.55-.63-2.06-3.02-.29-3.23,1.32-.15,2.8,1.23,3.73,1.99,1.23,1.02,2.41,2.11,3.52,3.26,2.34,2.42,4.35,5.1,6.05,8l2.59-1.51c-2.57-3.41-4.8-7.06-6.64-10.91-1.57-3.28-3.17-6.89-3.16-10.6,0-1.62.37-3.27,1.44-4.53.63-.74,1.44-1.34,2.45-1.03.95.29,1.75,1.12,2.39,1.85,2.44,2.78,3.12,6.81,3.32,10.38.28,5.07-.51,10.1-2.21,14.88l2.89.8c2.32-7.58,5.45-17.35,14.15-19.59,1.25-.32,3.61-.73,4.5.56,1.06,1.52-1.23,4.15-2.09,5.32-2.27,3.08-5.17,5.74-8.38,7.82-3.79,2.44-8,4.07-12.44,4.82-1.9.32-1.09,3.21.8,2.89,9.38-1.58,17.92-7.1,23.28-14.95,1.31-1.92,2.67-4.3,1.78-6.68-.76-2.02-2.87-2.92-4.9-3.05-4.55-.28-9.02,2.63-11.93,5.89-4.05,4.55-5.92,10.47-7.66,16.18-.57,1.87,2.25,2.59,2.89.8,1.79-5.01,2.61-10.37,2.32-15.68-.24-4.42-1.19-9.08-4.19-12.5-1.5-1.71-3.75-3.27-6.14-2.7-2.06.49-3.62,2.36-4.42,4.23-1.71,3.97-.56,8.6.98,12.44,2.14,5.32,4.95,10.32,8.39,14.9,1.13,1.5,3.6.2,2.59-1.51-2.18-3.71-4.87-7.13-8.01-10.08-2.34-2.19-6.39-6.24-9.89-4.09-1.57.96-2.09,2.98-1.66,4.69.51,2.02,2.2,3.55,3.66,4.93,3.28,3.1,6.98,5.73,10.97,7.83,1.71.9,3.22-1.69,1.51-2.59h0Z"/>
    </g>
    <g>
      <path class="st38" d="M125.32,291.94c-.67-7.7-1.84-15.36-3.5-22.9,15.86-.99,31.79-.83,47.63.48-1.69,6.74-3.39,13.48-5.08,20.23-.14.55-.29,1.12-.66,1.54-.44.5-1.12.72-1.77.89-11.08,3-22.82,1.12-34.13-.78"/>
      <path d="M126.82,291.94c-.69-7.83-1.87-15.62-3.56-23.3l-1.45,1.9c15.86-.98,31.78-.82,47.63.48l-1.45-1.9c-1.21,4.82-2.42,9.63-3.63,14.45l-.97,3.85c-.2.8-.26,2.21-.79,2.84s-1.94.71-2.67.87c-1.14.26-2.29.48-3.45.64-9.42,1.35-19-.26-28.29-1.82-1.89-.32-2.7,2.57-.8,2.89,7.96,1.33,16.03,2.68,24.13,2.36,3.76-.15,7.88-.5,11.45-1.78,1.6-.57,2.4-1.68,2.83-3.29.53-2,1.01-4.01,1.51-6.02,1.19-4.74,2.38-9.47,3.57-14.21.25-1.01-.47-1.82-1.45-1.9-15.84-1.3-31.76-1.46-47.63-.48-1.01.06-1.66.91-1.45,1.9,1.63,7.42,2.78,14.93,3.45,22.5.17,1.91,3.17,1.93,3,0h0Z"/>
    </g>
    <rect class="st17" x="113.62" y="327.77" width="32.01" height="58.48"/>
    <rect class="st29" x="144.44" y="325.97" width="13.97" height="58.16"/>
    <rect class="st17" x="158.41" y="327.77" width="9.95" height="56.35"/>
    <rect class="st21" x="67.54" y="364.42" width="52.58" height="21.84"/>
    <rect class="st10" x="69.51" y="348.66" width="46.87" height="15.75"/>
    <rect class="st27" x="26.97" y="347.48" width="42.54" height="16.94"/>
    <rect class="st4" x="26.97" y="364.42" width="40.57" height="21.84"/>
    <rect class="st1" x="53.73" y="251.29" width="11.14" height="41.21"/>
    <rect class="st3" x="23.29" y="292.5" width="175.95" height="11.35"/>
  </g>
  <g>
    <g>
      <rect class="st3" x="844.59" y="805.76" width="13.87" height="86.02"/>
      <g>
        <rect class="st3" x="1127.37" y="764.02" width="13.87" height="83.46"/>
        <polygon class="st3" points="834.23 794.36 892.08 741.48 1147.6 737.68 1092.04 794.36 834.23 794.36"/>
        <polygon class="st3" points="1095.31 805.76 1094.41 791.94 1147.6 737.68 1147.6 756.59 1095.31 805.76"/>
        <polygon class="st3" points="834.23 805.76 834.23 794.36 1094.41 791.94 1095.31 805.76 834.23 805.76"/>
        <rect class="st3" x="1075.75" y="805.18" width="14.64" height="84.6"/>
      </g>
    </g>
    <g>
      <path class="st32" d="M918.68,840.88c-6.27,1.94-11.39,7.25-13.09,13.59-.79,2.92-.77,6.35,1.24,8.62,1.43,1.61,3.59,2.33,5.68,2.89,17.14,4.55,35.24,2.21,52.97,2.82,14.45.5,29.49,2.89,42.97-2.35,4.56-1.77,8.76-4.36,12.68-7.29,4.93-3.69,9.49-7.99,12.68-13.26.68-1.13,1.32-2.37,1.28-3.68-.05-1.71-1.27-3.23-2.76-4.08s-3.22-1.15-4.92-1.38c-12.03-1.63-24.24-.41-36.38-.32-12.25.09-24.48-.98-36.73-.89s-24.68,1.38-36.03,5.98"/>
      <path d="M918.28,839.44c-7.53,2.41-13.83,9.27-14.61,17.29-.2,2.06.08,4.23,1.11,6.05s2.82,3.04,4.77,3.82c4.39,1.76,9.42,2.4,14.09,2.94,10.32,1.21,20.74.76,31.11.66,5.09-.05,10.17.02,15.25.3,4.94.27,9.87.64,14.82.74,9.7.21,19.46-.79,28.23-5.22,4.22-2.13,8.13-4.88,11.78-7.88,3.5-2.88,6.69-6.15,9.25-9.9,1.28-1.87,2.68-4.02,2.47-6.39-.18-2.01-1.5-3.74-3.16-4.81-1.99-1.29-4.42-1.58-6.72-1.87-2.6-.33-5.21-.53-7.83-.63-10.76-.45-21.52.53-32.29.39-20.57-.26-41.64-2.97-61.76,2.78-2.35.67-4.66,1.47-6.93,2.38-1.77.71-1,3.61.8,2.89,17.95-7.19,37.55-6.12,56.47-5.38,9.92.39,19.76.28,29.68-.02,5-.15,10-.25,15,0,2.46.12,4.91.32,7.35.65,1.97.27,4.3.62,5.65,2.25,1.58,1.9.14,4-.99,5.73s-2.48,3.4-3.91,4.94c-2.9,3.12-6.22,5.85-9.72,8.27-3.67,2.55-7.61,4.76-11.85,6.2s-8.85,2.21-13.4,2.49c-9.17.57-18.33-.5-27.49-.81-9.53-.33-19.07.19-28.6.04-4.82-.08-9.65-.31-14.43-.94-2.35-.31-4.69-.73-7-1.25-1.99-.45-4.14-.86-5.93-1.86-3.73-2.07-3.21-6.72-1.9-10.15s3.68-6.36,6.63-8.41c1.5-1.04,3.12-1.84,4.85-2.4,1.83-.59,1.05-3.48-.8-2.89h0Z"/>
    </g>
    <rect class="st2" x="923.13" y="867.98" width="10.9" height="64.21"/>
    <polygon class="st2" points="997.27 958.9 1011.44 958.9 1008.44 866.45 997.27 867.98 997.27 958.9"/>
    <polygon class="st2" points="1035.08 916.65 1043.88 916.65 1033.8 845.9 1024.7 856.3 1035.08 916.65"/>
    <g>
      <polygon class="st24" points="1023.55 783.31 1050.42 752.37 932.91 759.17 906.35 780.19 1023.55 783.31"/>
      <rect class="st30" x="929" y="699.99" width="102.41" height="66.03" rx="3.31" ry="3.31"/>
      <rect class="st14" x="936.95" y="708.64" width="85.27" height="50.53" rx="3.04" ry="3.04"/>
    </g>
    <g>
      <path class="st32" d="M943.44,843.85c-13.51.76-27.87,1.34-39.65-5.3-3.07-1.73-5.95-4-7.69-7.06-1.99-3.5-2.32-7.68-2.47-11.71-.19-5.4-.14-10.81.16-16.21.33-5.93.98-11.92,3.1-17.46,2.12-5.54,5.88-10.65,11.15-13.37,5.91-3.05,12.91-2.79,19.54-2.46,16.7.83,33.39,1.66,50.09,2.49,2.6.13,5.33.3,7.54,1.69,2.54,1.61,3.89,4.55,4.86,7.4,5.96,17.55,2.55,36.78-1.76,54.8-.65,2.7-1.41,5.56-3.45,7.43-2.91,2.66-7.36,2.45-11.29,2.07-11.28-1.1-22.56-2.26-33.83-3.5"/>
      <path d="M943.44,842.35c-9.38.53-19.02,1.06-28.25-1.07-4.53-1.05-8.97-2.73-12.81-5.37s-6.17-6.41-6.86-11.11c-.75-5.09-.57-10.44-.44-15.57.12-5.16.34-10.39,1.28-15.47,1.64-8.81,6.16-17.95,15.27-20.87,4.58-1.47,9.48-1.39,14.23-1.18,5.38.23,10.75.53,16.12.8,10.91.54,21.82,1.08,32.73,1.63,2.41.12,4.94.06,7.3.64,2.18.53,3.79,1.78,4.94,3.7,2.37,3.96,3.36,9.03,4.06,13.53,1.58,10.09.62,20.47-1.18,30.47-.89,4.94-1.95,9.87-3.18,14.74-.5,1.98-1.1,4.09-2.57,5.58s-3.44,1.96-5.4,2.08c-2.19.14-4.39-.12-6.57-.33-2.7-.26-5.4-.53-8.09-.8-5.39-.54-10.79-1.1-16.18-1.68-2.7-.29-5.39-.58-8.09-.88-1.92-.21-1.9,2.79,0,3,11.51,1.27,23.03,2.57,34.57,3.57,4.25.37,9.25.27,12.25-3.26,1.45-1.7,2.25-3.8,2.82-5.94.69-2.57,1.25-5.18,1.82-7.78,2.32-10.61,4.06-21.52,3.45-32.41-.29-5.27-1.13-10.53-2.71-15.58-1.38-4.4-3.34-8.86-7.98-10.56-2.31-.84-4.86-.88-7.28-1-2.98-.15-5.95-.3-8.93-.44-5.87-.29-11.74-.58-17.61-.88s-11.74-.58-17.61-.88c-5.26-.26-10.61-.77-15.87-.2-4.93.53-9.54,2.09-13.37,5.31-3.52,2.96-6.04,6.97-7.73,11.22-1.98,4.99-2.74,10.39-3.13,15.71-.43,5.73-.53,11.5-.37,17.24.14,4.96.34,10.31,3.12,14.61,2.61,4.04,6.91,6.74,11.24,8.63,9.25,4.04,19.51,4.5,29.46,4.17,2.51-.08,5.02-.22,7.53-.36,1.92-.11,1.93-3.11,0-3h0Z"/>
    </g>
    <polygon class="st2" points="930.49 820.17 955.3 820.17 958.02 873.86 933.76 873.86 930.49 820.17"/>
  </g>
  <g>
    <rect class="st0" x="854.75" y="562.5" width="30.08" height="104.47"/>
    <rect class="st0" x="1183.36" y="564.82" width="25.41" height="104.84"/>
    <rect class="st13" x="1172.54" y="657.54" width="10.82" height="12.12"/>
    <rect class="st0" x="884.83" y="562.5" width="298.53" height="95.04"/>
    <rect class="st16" x="856.55" y="666.97" width="28.28" height="5.84"/>
    <polygon class="st0" points="838.06 548.91 880.33 523.18 1187.08 527.03 1220.12 551.61 838.06 548.91"/>
    <polygon class="st0" points="838.06 562.38 838.06 548.91 1220.12 551.61 1220.12 565.08 838.06 562.38"/>
  </g>
  <g>
    <rect class="st30" x="1012.56" y="432.42" width="123.57" height="83.26" rx="4.1" ry="4.1"/>
    <rect class="st6" x="1019.3" y="441.02" width="107.14" height="67.32" rx="3.91" ry="3.91"/>
    <rect class="st7" x="1062.52" y="512.28" width="20.17" height="18.08"/>
    <g>
      <path class="st33" d="M1055.84,532.99c-.32-1.68.92-3.33,2.47-4.06s3.31-.74,5.02-.72c7.58.05,15.17.28,22.72.89,1.05.09,2.2.22,2.93.99,1.13,1.19.5,3.31-.84,4.27s-3.08,1.07-4.72,1.11c-9.06.25-18.14-.44-27.05-2.07"/>
      <path d="M1056.96,532.99c-.61-4.82,7.84-3.65,10.56-3.61,4.7.08,9.39.23,14.08.53,1.07.07,2.14.14,3.21.22.92.07,2.24-.01,3.05.51.71.46.66,1.3.31,1.98-.43.85-1.31,1.25-2.19,1.47-2.12.53-4.54.32-6.7.31s-4.53-.08-6.79-.2c-5.31-.3-10.6-.93-15.84-1.88-1.42-.26-2.02,1.91-.6,2.17,5.67,1.03,11.41,1.71,17.16,2,2.91.15,5.82.2,8.73.15,2.34-.04,5.04.05,6.98-1.48,1.41-1.11,2.2-3.16,1.47-4.88-.87-2.04-3.16-2.21-5.09-2.36-5.92-.46-11.85-.69-17.78-.79-2.86-.05-6.18-.49-8.93.48-2.25.79-4.2,2.85-3.88,5.38.18,1.42,2.43,1.44,2.25,0h0Z"/>
    </g>
    <g>
      <path class="st32" d="M1019.85,541.28c2.83-2.36,5.66-4.73,8.49-7.09.44-.37.89-.74,1.44-.92.71-.23,1.49-.09,2.22.03,6.42,1.08,12.97,1.03,19.48.97,9.64-.09,19.28-.21,28.91-.34,3.27-.05,6.55-.09,9.82-.19,4.89-.15,9.8-.41,14.66.11,1.66.18,3.35.46,4.85,1.2,2.9,1.43,4.7,4.36,6.36,7.14-3.24.19-6.49.2-9.74.2-29.09.04-58.21.08-87.25-1.74"/>
      <path d="M1020.64,542.08l7.75-6.48c.69-.58,1.31-1.27,2.26-1.33.74-.05,1.53.2,2.25.3,1.63.24,3.26.42,4.9.55,6.7.52,13.45.28,20.15.2s13.63-.16,20.44-.25,13.43-.44,20.13-.42c3.38,0,7.5-.17,10.62,1.35,2.78,1.36,4.43,4.18,5.95,6.73l.97-1.69c-6.29.35-12.62.21-18.92.21s-12.57,0-18.85-.03c-12.64-.07-25.29-.25-37.93-.69-7.1-.25-14.2-.59-21.29-1.03-1.45-.09-1.44,2.16,0,2.25,25.25,1.57,50.55,1.76,75.84,1.76,7.04,0,14.12.18,21.15-.21.83-.05,1.43-.93.97-1.69-1.42-2.38-2.91-4.81-5.14-6.51-2.46-1.88-5.49-2.28-8.49-2.51-7.06-.54-14.23.09-21.3.2s-14.44.19-21.66.27-14.47.37-21.67-.11c-2.01-.13-4.01-.33-6-.65-1.73-.27-3.2-.45-4.68.65-3.14,2.33-6.05,5.04-9.05,7.54-1.11.93.49,2.51,1.59,1.59h0Z"/>
    </g>
  </g>
  <g>
    <g>
      <path class="st36" d="M1145.8,511.06c.21,6.6.42,13.19.63,19.79.09,2.76.22,5.67,1.73,7.98,1.68,2.58,4.81,3.91,7.88,4.14s6.12-.51,9.09-1.28c1.3-.34,2.7-.75,3.54-1.8.7-.87.89-2.03,1.04-3.13,1.07-7.88,1.2-15.88.4-23.79"/>
      <path d="M1144.67,511.06c.19,5.94.38,11.87.56,17.81.15,4.74.1,9.96,4.35,13.03s9.66,2.4,14.41,1.23c2.1-.52,4.61-.99,5.84-2.98s1.2-4.98,1.42-7.27c.64-6.63.61-13.3-.05-19.93-.14-1.43-2.39-1.44-2.25,0,.5,5.09.65,10.21.39,15.31-.13,2.51-.34,5.02-.66,7.51-.13,1-.19,2.18-.71,3.07-.59,1.01-1.75,1.36-2.81,1.65-4.3,1.19-9.39,2.4-13.53.05s-4.03-7.59-4.17-11.93c-.19-5.85-.37-11.71-.56-17.56-.05-1.44-2.3-1.45-2.25,0h0Z"/>
    </g>
    <g>
      <path class="st36" d="M1170.58,513.4c1.43-.18,2.87-.28,4.31-.32,1.8-.04,3.72.06,5.21,1.07,1.17.79,1.94,2.07,2.44,3.39.99,2.67.97,5.61.56,8.43-.26,1.85-.71,3.73-1.84,5.22-1.17,1.54-2.98,2.51-4.86,2.97s-3.84.46-5.78.37c-.37-1.52-.52-3.1-.45-4.66,1.72.2,3.39-.67,4.75-1.74,1.17-.93,2.23-2.07,2.74-3.47s.4-3.1-.57-4.24c-1.31-1.56-3.62-1.64-5.65-1.88-.25-.03-.53-.08-.7-.27-.15-.17-.18-.41-.21-.63-.14-1.25-.28-2.49-.42-3.74"/>
      <path d="M1170.58,514.53c1.6-.19,3.21-.32,4.82-.32,1.4,0,2.95.09,4.14.93,2.47,1.75,2.8,5.58,2.68,8.33s-.53,6.21-2.86,8.1-5.77,1.99-8.73,1.86l1.08.83c-.33-1.45-.46-2.88-.41-4.37l-1.12,1.12c4.32.32,9.41-4.25,8.86-8.71-.27-2.21-1.83-3.7-3.91-4.31-1-.29-2.04-.38-3.07-.5-.15-.01-.29-.03-.44-.05-.19.01-.19-.05,0-.21-.11-.3-.08-.72-.12-1.04-.09-.76-.17-1.52-.26-2.29-.16-1.42-2.41-1.44-2.25,0,.13,1.18.26,2.36.4,3.53.12.97.37,1.79,1.38,2.11,1.66.53,3.64.07,5.11,1.25,1.66,1.33.9,3.74-.24,5.12-1.32,1.58-3.33,3-5.46,2.84-.62-.05-1.11.55-1.12,1.12-.06,1.68.12,3.33.49,4.96.11.5.6.8,1.08.83,3.6.16,7.44-.1,10.32-2.52s3.37-6.27,3.52-9.69-.49-7.62-3.31-9.9-7.23-1.68-10.58-1.28c-1.42.17-1.44,2.42,0,2.25h0Z"/>
    </g>
    <g>
      <path class="st36" d="M1150.15,509.07c-1.16.14-2.37-.04-3.49.28s-2.16,1.47-1.79,2.58c.29.85,1.23,1.25,2.08,1.53,6.32,2.06,13.18,2.47,19.7,1.17.93-.18,1.87-.41,2.65-.95s1.35-1.46,1.24-2.39c-.11-.86-.78-1.57-1.56-1.95s-1.66-.49-2.52-.57c-5.61-.56-11.29-.43-16.86.37"/>
      <path d="M1150.15,507.94c-1.98.17-4.15-.15-5.63,1.48-1.15,1.26-1.1,3.07.23,4.18,1.52,1.27,4.07,1.63,5.94,2.03,2.21.47,4.48.75,6.74.84s4.74-.03,7.09-.35c1.94-.27,4.34-.47,5.86-1.87,1.29-1.18,1.71-3.04.72-4.55-1.12-1.7-3.27-1.95-5.12-2.12-5.57-.51-11.15-.32-16.68.46-1.43.2-.82,2.37.6,2.17,4.37-.61,8.79-.81,13.19-.59,1.05.05,2.09.13,3.13.23.95.09,2.19.15,2.88.92,1.77,1.98-2.83,2.79-3.87,2.97-4.13.69-8.43.68-12.56-.04-1.91-.33-3.92-.73-5.72-1.45-.42-.17-.93-.34-.95-.83s.54-.84.97-1c.98-.35,2.17-.16,3.19-.24,1.43-.13,1.44-2.38,0-2.25h0Z"/>
    </g>
  </g>
  <g>
    <g>
      <path class="st40" d="M915.75,534.85c-.71,2.09.83,4.41,2.82,5.35s4.3.86,6.51.78c7.19-.27,14.39-.37,21.59-.29,15.8.18,31.58,1.2,47.38,1.22,1.44,0,2.92-.01,4.27-.53,1.04-.4,1.95-1.08,2.85-1.75,5.82-4.38,11.65-8.75,17.47-13.13.53-.4,1.12-.9,1.12-1.56,0-1.1-1.44-1.49-2.54-1.54-2.91-.13-5.82-.2-8.73-.21-10.2-.03-20.39.67-30.53,1.69-20.84,2.09-41.55,5.52-61.94,10.27"/>
      <path d="M914.3,534.45c-.81,2.86.94,5.77,3.51,7.04,3.11,1.54,6.87.98,10.21.88,7.7-.24,15.4-.27,23.09-.11,7.73.16,15.46.48,23.2.74,3.95.13,7.9.25,11.85.33,3.57.07,7.36.44,10.9-.09s6.48-3.52,9.24-5.59c3.04-2.29,6.09-4.58,9.13-6.86,1.51-1.13,3.12-2.2,4.54-3.43,1.06-.92,1.71-2.37.96-3.7-.62-1.1-1.9-1.54-3.08-1.69-1.8-.23-3.66-.18-5.47-.22-15.38-.33-30.78,1.05-46.03,2.95-17.05,2.12-33.99,5.13-50.73,9.02-1.88.44-1.08,3.33.8,2.89,13.68-3.18,27.49-5.78,41.4-7.77s28.15-3.54,42.3-4.01c3.44-.11,6.88-.16,10.33-.12,1.7.02,3.39.06,5.09.12.73.03,1.52-.03,2.24.14.12.03.37.15.52.17.09-.41.03-.45-.17-.13-.19.18-.4.35-.62.5-5.62,4.36-11.37,8.57-17.07,12.83-1.15.86-2.29,1.68-3.73,1.94-1.65.29-3.43.13-5.1.12-3.62-.03-7.24-.1-10.86-.2-7.07-.2-14.15-.49-21.22-.71-7.88-.25-15.75-.39-23.63-.28-3.9.05-7.79.2-11.68.31-1.77.05-3.76.09-5.33-.85-1.17-.7-2.07-2.01-1.67-3.4.53-1.86-2.36-2.65-2.89-.8h0Z"/>
    </g>
    <path d="M990.92,541.07c-.07-.13-.13-.27-.19-.4-.16-.34.11.3-.02-.05-.09-.24-.18-.48-.26-.73s-.14-.5-.2-.75c-.05-.23-.15-.53-.14-.76-.02.38,0,.07,0-.04-.02-.15-.03-.29-.04-.44-.02-.26-.02-.52-.02-.77s.02-.52.04-.77c.01-.11.01-.22.04-.33-.09.43.02-.06.03-.15.14-.77-.21-1.65-1.05-1.85-.73-.17-1.7.22-1.85,1.05-.46,2.58-.11,5.16,1.06,7.51.35.7,1.4.96,2.05.54.72-.47.91-1.3.54-2.05h0Z"/>
    <path d="M995.78,534.29c1-.06,2-.23,2.95-.55s1.94-.75,2.74-1.37c.68-.52,1.12-1.29.91-2.17s-1.03-1.37-1.89-1.43c-.52-.04-1.06.08-1.57.2-.45.1-.88.25-1.31.42-1.06.43-2.06.98-3.04,1.56-.55.33-.89,1.06-.69,1.69.22.68.76,1.03,1.45,1.1s1.34.14,2,.21c.36.04.82-.19,1.06-.44.26-.26.46-.69.44-1.06-.04-.88-.66-1.41-1.5-1.5-.67-.07-1.34-.14-2-.21l.76,2.8c.43-.25.86-.51,1.3-.74.2-.11.41-.22.62-.32.09-.04.18-.09.27-.13.06-.03.12-.06.18-.08.15-.07.12-.05-.09.03.05-.06.25-.1.32-.13.11-.04.22-.08.32-.11.22-.07.44-.14.66-.19.13-.03.26-.06.38-.08.05,0,.1-.02.15-.02.12-.02.06-.01-.15.02.02.02.29-.02.34-.02.16,0,.1,0-.19-.03.11.03.09.02-.05-.03-.32-.11-.54-.35-.65-.73.23-.87.25-1.14.07-.81.16-.19.18-.23.08-.12-.12.1-.08.07.11-.09-.05,0-.21.13-.24.16-.11.07-.22.13-.33.19-.2.11-.4.21-.6.31-.02.01-.26.09-.26.12.21-.09.24-.1.09-.04-.06.02-.12.05-.18.07-.42.16-.85.29-1.29.38-.13.03-.25.05-.38.08-.07.01-.23,0-.29.05.24-.03.28-.04.11-.02-.06,0-.13.01-.19.02-.13.01-.26.02-.38.03-.78.05-1.54.66-1.5,1.5.03.77.66,1.55,1.5,1.5h0Z"/>
    <g>
      <path class="st41" d="M915.35,532.39c1.92-15.85-2.48-31.69-5.37-47.39-.4-2.2-.68-4.76.84-6.39.9-.97,2.25-1.37,3.54-1.67,3.97-.9,8.07-1.15,12.13-1.4,17.71-1.07,35.47-2.14,53.2-1.29,1.83.09,3.71.21,5.37.99,2.52,1.19,4.13,3.72,5.19,6.29,1.66,4.07,2.25,8.49,2.74,12.86,1.26,11.27,1.99,22.59,2.71,33.91.09,1.46.12,3.11-.92,4.13-.97.95-2.49.98-3.85.96-14.41-.27-28.84-.05-43.23.67-10.61.53-21.31,1.32-31.8-.31"/>
      <path d="M916.85,532.39c1-8.54.22-17.13-1.16-25.59-.71-4.32-1.57-8.62-2.44-12.91-.43-2.14-.87-4.29-1.28-6.44-.35-1.8-.84-3.65-.8-5.49.04-2.01,1.14-2.95,3.01-3.44,2.03-.53,4.13-.82,6.22-1.04,4.25-.43,8.54-.6,12.81-.85,8.94-.52,17.89-.99,26.85-1.14,4.39-.08,8.79-.08,13.18.03,2.23.05,4.45.13,6.67.24,1.86.1,3.8.24,5.38,1.33,2.95,2.03,4.17,6.08,4.95,9.38.98,4.12,1.33,8.38,1.75,12.58.87,8.75,1.46,17.52,2.03,26.3.07,1.05.14,2.09.2,3.14.04.79.15,1.76-.23,2.49-.77,1.48-3.7.91-5.05.88-4.39-.07-8.78-.09-13.17-.07-8.86.05-17.73.28-26.58.7-8.74.42-17.5,1.09-26.24.52-2.23-.14-4.45-.37-6.65-.71-1.89-.29-2.7,2.6-.8,2.89,9.3,1.42,18.68,1.07,28.04.58,9.42-.49,18.83-.85,28.26-.96,4.72-.05,9.44-.06,14.17,0,2.2.02,4.48.25,6.67.02,1.86-.2,3.48-1.07,4.19-2.87s.37-3.79.26-5.63c-.15-2.38-.31-4.76-.47-7.13-.32-4.67-.66-9.34-1.06-14.01-.4-4.66-.82-9.33-1.44-13.96-.55-4.11-1.35-8.3-3.28-12.01-1.81-3.48-4.66-5.75-8.59-6.26-4.51-.58-9.19-.47-13.73-.5-9.54-.07-19.07.3-28.59.81-4.71.25-9.42.53-14.12.82-4.28.26-8.87.41-12.99,1.72-1.81.58-3.37,1.64-4.11,3.44s-.56,3.61-.28,5.41c.7,4.49,1.74,8.93,2.63,13.38,1.81,9.1,3.45,18.31,3.28,27.63-.04,2.25-.2,4.49-.46,6.72-.22,1.91,2.78,1.9,3,0h0Z"/>
    </g>
    <path d="M951.46,506.98c-1.59-.25-3.19-.3-4.68.41-1.23.58-2.14,1.77-2.4,3.1-.28,1.48.32,2.94,1.62,3.74,1.22.76,2.75.74,4.14.77,1.76.04,3.51.08,5.27.12,1.56.04,3.25.25,4.79-.12s2.66-1.62,2.72-3.22-.86-2.93-2.09-3.81c-1.48-1.07-3.35-1.25-5.13-1.33-1.99-.09-3.99-.16-5.98-.24s-1.93,2.92,0,3c2.45.1,4.98.02,7.41.35.85.12,1.78.37,2.38,1.02.33.37.69,1.05.11,1.3-.71.31-1.8.11-2.55.09-1.3-.03-2.61-.06-3.91-.09s-2.51-.05-3.76-.09c-.57-.02-1.63.05-2.03-.49-.09-.12-.07-.3-.02-.49.08-.31.27-.61.54-.81.74-.55,1.94-.46,2.79-.33.8.12,1.61-.2,1.85-1.05.2-.71-.24-1.72-1.05-1.85h0Z"/>
  </g>
</svg>